<svg xmlns="http://www.w3.org/2000/svg" viewBox="0 0 171.8 171.8" enable-background="new 0 0 171.8 171.8"><g fill="#fff"><path d="M50.237 18.872l2.495-1.27 30.39 59.71-2.494 1.27zM61.7 2.7l-9.2 15.1.7 1.2.2.5zM32.9 17.4l17.5 1.5.7 1.2.2.5zM76.8 16.8L63.3 39l.9 1.9.4.7zM35.4 37.9L61.3 40l.9 1.9.4.7zM83.7 42.7L73.4 59.6l.7 1.4.3.5zM52.3 58.7l19.6 1.6.8 1.4.2.5zM70.7 95L81 78.1l-.7-1.4-.3-.5zM102.1 79l-19.6-1.6-.7-1.4-.3-.5zM121.53 152.856l-2.495 1.27-30.392-59.71 2.496-1.27zM110 169l9.2-15-.6-1.3-.3-.5zM138.9 154.3l-17.6-1.4-.6-1.3-.3-.4zM94.9 154.9l13.6-22.2-1-1.8-.3-.7zM136.4 133.8l-26-2.1-.9-1.8-.3-.7zM88.1 129l10.2-16.8-.7-1.4-.2-.5zM119.5 113l-19.7-1.6-.7-1.4-.3-.5zM101 76.8L90.8 93.6l.7 1.4.2.5zM69.6 92.8l19.7 1.6.7 1.4.2.5zM18.94 121.56l-1.27-2.495 59.704-30.398 1.27 2.495zM2.7 110l15.1 9.2 1.2-.6.5-.3zM17.4 138.9l1.5-17.6 1.2-.6.5-.3zM16.8 94.9L39 108.5l1.9-1 .7-.3zM37.9 136.4l2.1-26 1.9-.9.7-.3zM42.7 88.1l16.9 10.2 1.4-.7.5-.2zM58.7 119.5l1.6-19.7 1.4-.7.5-.3zM95 101L78.1 90.8l-1.4.7-.5.2zM79 69.6l-1.6 19.7-1.4.7-.5.2zM152.886 50.18l1.27 2.495-59.71 30.397-1.27-2.495zM169 61.7l-15-9.2-1.3.7-.5.2zM154.3 32.9l-1.4 17.5-1.3.7-.4.2zM154.9 76.8l-22.2-13.5-1.8.9-.7.4zM133.8 35.4l-2.1 25.9-1.8.9-.7.4zM129 83.7l-16.8-10.3-1.4.7-.5.3zM113 52.3l-1.6 19.6-1.4.8-.5.2zM76.8 70.7L93.6 81l1.4-.7.5-.3zM92.8 102.1l1.6-19.6 1.4-.7.5-.3zM108.04 13.314l2.663.867-20.736 63.71-2.663-.865zM127.6 10l-17.2 4.2-.4 1.3-.1.5zM96.8 0l11.4 13.4-.4 1.4-.2.5zM128.3 30.7L103 36.8l-.6 1.9-.3.8zM84.1 16.3l16.8 19.8-.6 2-.3.7zM114.8 53.8l-19.1 4.7-.5 1.5-.2.5zM81.3 42.9L94.1 58l-.5 1.4-.2.6zM68.7 81.6L87.9 77l.5-1.5.2-.6zM102.3 92.5l-12.8-15L90 76l.2-.6zM63.696 158.477l-2.663-.866 20.73-63.71 2.662.867zM44.2 161.7l17.1-4.1.4-1.4.2-.4zM75 171.8l-11.5-13.5.5-1.3.1-.5zM43.5 141.1l25.2-6.1.7-2 .2-.7zM87.7 155.5l-16.9-19.8.7-2 .2-.7zM56.9 117.9l19.2-4.6.5-1.5.1-.6zM90.4 128.8l-12.7-15 .4-1.5.2-.6zM103 90.2l-19.2 4.6-.4 1.5-.2.5zM69.5 79.3l12.8 15-.5 1.5-.2.5zM158.4 108.063l-.866 2.662-63.704-20.75.867-2.662zM161.7 127.6l-4.1-17.2-1.4-.4-.4-.1zM171.8 96.8l-13.5 11.4-1.3-.4-.5-.2zM141.1 128.3L135 103l-2-.6-.7-.3zM155.5 84.1l-19.8 16.8-2-.6-.7-.3zM117.9 114.8l-4.6-19.1-1.5-.5-.6-.2zM128.8 81.3l-15 12.8-1.5-.5-.6-.2zM90.2 68.7l4.6 19.2 1.5.5.5.2zM79.3 102.3l15-12.8 1.5.5.5.2zM13.248 63.71l.867-2.663 63.71 20.743-.867 2.662zM10 44.2l4.2 17.1 1.3.4.5.2zM0 75l13.4-11.5 1.4.5.5.1zM30.7 43.5l6.1 25.2 1.9.7.8.2zM16.3 87.7l19.8-16.9 2 .7.7.2zM53.8 56.9l4.7 19.2 1.5.5.5.1zM42.9 90.4L58 77.7l1.4.5.6.1zM81.6 103L77 83.8l-1.5-.4-.6-.2zM92.5 69.5l-15 12.8-1.5-.5-.6-.2z"/></g></svg>