<svg xmlns="http://www.w3.org/2000/svg" viewBox="0 0 170.1 170.1" enable-background="new 0 0 170.1 170.1"><g fill="#fff"><ellipse cx="35.1" cy="154.8" rx="2" ry="2.2"/><ellipse cx="165.6" cy="97.3" rx="2" ry="2.2"/><ellipse cx="134.4" cy="16.4" rx="2" ry="2.2"/><ellipse cx="53.8" cy="5.3" rx="2" ry="2.2"/><path d="M48.1 79.9c-10.9-2.7-41-10.2-43-10.5-2.5-.3-4.7 1.5-5 4.2-.3 2.6 1.4 5.1 3.9 5.4 2 .3 32.9 1.4 44.1 1.8l-1.5-.6 1.5-.3zM4.5 76.2c-1.1 0-2-1-2-2.2 0-1.2.9-2.2 2-2.2s2 1 2 2.2c0 1.3-.9 2.2-2 2.2zM20.9 85.1c-1.6.4-2.6 2-2.2 3.7.3 1.7 1.9 2.8 3.5 2.4 1.3-.3 22-7.4 28.1-9.5l-.7-.3c-7 .9-27.4 3.4-28.7 3.7zm.6 5.3c-1.1 0-2-1-2-2.2 0-1.2.9-2.2 2-2.2s2 1 2 2.2c0 1.2-.9 2.2-2 2.2zM25.7 62.6c-1.4-.8-3.2-.2-3.9 1.3-.7 1.5-.2 3.4 1.3 4.2 1.2.7 20.3 8.8 26.8 11.5l.7-.1c-5.4-3.6-23.7-16.2-24.9-16.9zm-1.5 4.9c-1.1 0-2-1-2-2.2 0-1.2.9-2.2 2-2.2s2 1 2 2.2c.1 1.3-.8 2.2-2 2.2zM34.6 100.4c-1.3 1.1-1.5 3-.5 4.4 1 1.4 2.8 1.6 4.1.5 1-.9 15.3-15.4 20.7-20.9l-.9-.1c-6.6 4.5-22.4 15.3-23.4 16.1zm1.7 4.6c-1.1 0-2-1-2-2.2 0-1.2.9-2.2 2-2.2s2 1 2 2.2c0 1.3-.9 2.2-2 2.2zM44.5 53.5c-1-1.4-2.8-1.6-4.1-.6-1.3 1-1.5 3-.6 4.4.8 1.1 13.5 15.9 18.7 22l.8.1c-3.7-6.8-14-24.8-14.8-25.9zm-2.3 4c-1.1 0-2-1-2-2.2 0-1.2.9-2.2 2-2.2s2 1 2 2.2c0 1.2-.9 2.2-2 2.2zM80.3 84.9l-1.1-2.7-.9-.2c.1.2.1.3.1.3s-.1-.1-.2-.3l-18.8-2.6c.9 1.6 1.4 2.5 1.4 2.5s-.9-1-2.3-2.7l-2.4-.3-5.7.7 1.5 1s-.8-.3-2.2-.9l-1.7.2c2.5.6 4 1 4 1s-1.5-.1-4.1-.1l1.6.7c1.4-.2 2.3-.3 2.3-.3s-.6.2-1.6.6l5.3 2.3 2.4.3c1.7-1.2 2.8-1.9 2.8-1.9s-.8.8-2 2.1l18 2.4c.8-.6 1.3-.9 1.3-.9l-.9.9 1.6.2 1.6-2.3zM59.5 98.6c-.9.7-1.1 2.1-.4 3.1.7 1 2 1.1 2.9.4.8-.6 11.8-11.7 15.1-15l-.4-.1c-4.2 2.7-16.5 11-17.2 11.6zm1.2 2.9c-.6 0-1.2-.6-1.2-1.2 0-.7.5-1.2 1.2-1.2.6 0 1.2.6 1.2 1.2 0 .7-.5 1.2-1.2 1.2zM66.8 62.4c-.7-1-2-1.1-2.9-.4-.9.7-1.1 2.1-.4 3.1.7.9 12.9 14.9 14.7 16.9h.1C77 79.8 67.5 63.3 66.8 62.4zM65.2 65c-.6 0-1.2-.6-1.2-1.3 0-.7.5-1.2 1.2-1.2s1.2.6 1.2 1.2c0 .7-.5 1.3-1.2 1.3zM62.4 116.8c-7.7 8.8-28.8 33-30 34.7-1.5 2.1-1.1 5.1.8 6.8 2 1.6 4.8 1.2 6.3-.9 1.2-1.7 17.6-29.8 23.5-40.1l-1.3 1.1.7-1.6zm-24.7 38.6c-.6 1-1.8 1.4-2.7.8-1-.6-1.3-1.9-.7-2.9s1.8-1.4 2.7-.8c.9.6 1.2 1.9.7 2.9zM53.1 144.6c-.5 1.6.3 3.4 1.9 3.9 1.5.5 3.2-.4 3.7-2 .4-1.4 5-24.2 6.4-30.8l-.6.5c-2.9 6.8-11 27-11.4 28.4zm4.5 2.1c-.6 1-1.8 1.4-2.7.8-1-.6-1.3-1.9-.7-2.9.6-1 1.8-1.4 2.7-.8.9.6 1.2 1.9.7 2.9zM37.3 129c-1.4.9-1.7 2.9-.9 4.3.9 1.5 2.7 1.9 4 .9 1.1-.8 17.2-14.4 22.7-19.1l.3-.7c-5.6 3.1-25 13.8-26.1 14.6zm.4 4.5c-1-.6-1.3-1.9-.7-2.9.6-1 1.8-1.4 2.7-.8 1 .6 1.3 1.9.7 2.9-.5 1.1-1.7 1.4-2.7.8zM72.2 139.6c.2 1.7 1.7 2.9 3.3 2.7 1.6-.2 2.7-1.8 2.5-3.5-.2-1.4-4.8-21.9-6.5-29.6l-.5.7c.3 8.2 1.1 28.3 1.2 29.7zm1.2-1.5c.6-1 1.8-1.4 2.7-.8 1 .6 1.3 1.9.7 2.9-.6 1-1.8 1.4-2.7.8-1-.5-1.3-1.9-.7-2.9zM39.3 106.9c-1.6.2-2.7 1.8-2.5 3.5.2 1.7 1.7 2.9 3.2 2.7 1.3-.2 19.5-4.6 27.2-6.4l.5-.7c-7.4.1-27.1.7-28.4.9zm-.7 4.9c-1-.6-1.3-1.9-.7-2.9.6-1 1.8-1.4 2.7-.8 1 .6 1.3 1.9.7 2.9-.5 1-1.7 1.4-2.7.8zM82.6 93.4l1-1.3-1.1-2.7-2.7-.4-.6.8h.3s-.1 0-.3.1L67.7 106c1.7 0 2.8-.1 2.8-.1s-1.3.3-3.3.8l-1.5 2.1-2.3 5.7c1-.5 1.5-.8 1.5-.8s-.7.6-1.8 1.5l-.7 1.7c1.7-2 2.8-3.2 2.8-3.2s-.8 1.4-2.1 3.7l1.3-1.1c.6-1.4.9-2.3.9-2.3s-.1.7-.4 1.8l4.5-3.8 1.5-2.1c-.1-2.2-.1-3.6-.1-3.6s.2 1.1.7 2.9l10.9-15.3c0-1.1-.1-1.7-.1-1.7s.2.4.3 1.2zM87.2 115c-.1-1-3.5-16.8-4.6-21.5l-.2.3c.2 5.2.6 20.8.8 21.8.1 1.2 1.2 2 2.3 1.9 1.1-.2 1.9-1.3 1.7-2.5zm-1 .9c-.3.6-1 .8-1.6.5-.6-.3-.7-1.1-.4-1.7.3-.6 1-.8 1.6-.5.5.3.7 1.1.4 1.7zM57.6 90.6c-1.1.2-1.9 1.3-1.8 2.5.2 1.2 1.2 2 2.3 1.9 1-.1 18.5-4.5 21-5.1l.1-.1c-2.4.1-20.5.7-21.6.8zm-.3 3.3c-.6-.3-.7-1.1-.4-1.7.3-.6 1-.8 1.6-.5.6.3.8 1.1.4 1.7-.3.6-1 .8-1.6.5zM99.4 121.9c3.3 11.5 12.2 43.2 13 45.2 1 2.5 3.6 3.6 5.9 2.6 2.3-1 3.4-3.8 2.4-6.3-.8-2-15.3-31.2-20.6-41.8l.2 1.7-.9-1.4zm16.1 41.5c1-.6 2.2-.2 2.7.8.6 1 .2 2.3-.7 2.9-1 .6-2.2.2-2.7-.8-.6-1-.3-2.3.7-2.9zM117.2 144.5c1.1 1.3 2.9 1.4 4.1.2 1.2-1.2 1.3-3.1.2-4.4-.9-1.1-17-16.7-21.7-21.3l.1.8c4.1 6 16.4 23.7 17.3 24.7zm1.2-3.9c1-.6 2.2-.2 2.7.8.6 1 .2 2.3-.7 2.9-1 .6-2.2.2-2.7-.8-.6-1-.3-2.3.7-2.9zM96.6 151.4c.1 1.7 1.4 3 3 3 1.6-.1 2.8-1.6 2.8-3.3-.1-1.4-3.1-23.2-4.1-30.6l-.4-.6c-.3 6.7-1.3 30-1.3 31.5zm4.7-1.1c.6 1 .2 2.3-.7 2.9-1 .6-2.2.2-2.7-.8-.6-1-.2-2.3.7-2.9.9-.6 2.1-.3 2.7.8zM124.9 118.4c-1.2-.5-20.1-6.5-27.2-8.8l.3.8c6.9 3.9 23.5 13.2 24.7 13.7 1.5.6 3.2-.1 3.8-1.7.6-1.5-.2-3.3-1.6-4zm-.1 4.8c-1 .6-2.2.2-2.7-.8-.6-1-.2-2.3.7-2.9 1-.6 2.2-.2 2.7.8.6 1 .3 2.3-.7 2.9zM79.8 138.4c-.6 1.6.1 3.4 1.5 4.1 1.5.7 3.2-.1 3.8-1.7.5-1.3 6.1-20.4 8.4-28.4l-.3-.8c-3.5 7-12.9 25.5-13.4 26.8zm3.6 3.1c-1 .6-2.2.2-2.7-.8-.6-1-.2-2.3.7-2.9 1-.6 2.2-.2 2.7.8.6 1 .3 2.3-.7 2.9zM97.7 109.7l-6.9-17.8c-.9-.5-1.4-.8-1.4-.8s.5.1 1.2.4l-.6-1.6-2.7-.4-1.7 2.3.4.9c.1-.2.1-.3.1-.3s0 .1-.1.3l7.2 18.7 1.3-2.6s-.4 1.3-1 3.5l.9 2.4 3.4 4.9c.2-.9.2-1.6.2-1.6s.1.9.3 2.5l1 1.5c-.7-2.6-1.2-4.2-1.2-4.2s.7 1.5 1.9 3.8l-.2-1.8c-.9-1.2-1.4-2-1.4-2s.5.5 1.3 1.2l-.8-6.1-.9-2.4c-1.8-1-3-1.7-3-1.7s1 .3 2.7.9zM108.8 102c1 .5 2.2-.1 2.7-1.2.4-1.1-.1-2.4-1.1-2.9-.9-.4-15.3-5.1-19.7-6.5l.2.4c4.2 2.5 17 9.8 17.9 10.2zm.1-3.1c.6-.3 1.3-.1 1.6.5.3.6.1 1.4-.4 1.7-.6.3-1.3.1-1.6-.5-.3-.6-.1-1.3.4-1.7zM75.9 113.3c-.4 1.1.1 2.4 1.1 2.9s2.2-.1 2.7-1.2c.4-1 5.6-19.4 6.4-22.1v-.1c-1.3 2.3-9.8 19.4-10.2 20.5zm2.4 1.9c-.6.3-1.3.1-1.6-.5-.3-.6-.1-1.4.4-1.7.6-.3 1.3-.1 1.6.5.4.6.2 1.3-.4 1.7zM166.2 91.1c-2-.3-32.9-1.4-44.1-1.8l1.5.6-1.6.2c10.9 2.7 41 10.2 43 10.5 2.5.3 4.7-1.5 5-4.2.4-2.5-1.4-4.9-3.8-5.3zm-.6 7c-1.1 0-2-1-2-2.2 0-1.2.9-2.2 2-2.2s2 1 2 2.2c0 1.3-.9 2.2-2 2.2zM149.1 84.9c1.6-.4 2.6-2 2.2-3.7-.3-1.7-1.9-2.8-3.5-2.4-1.3.3-22 7.4-28.1 9.5l.7.3c7-.8 27.4-3.4 28.7-3.7zm-.5-5.2c1.1 0 2 1 2 2.2 0 1.2-.9 2.2-2 2.2s-2-1-2-2.2c0-1.2.9-2.2 2-2.2zM144.4 107.4c1.4.8 3.2.2 3.9-1.3.7-1.5.2-3.4-1.3-4.2-1.2-.7-20.3-8.8-26.8-11.5l-.7.1c5.4 3.6 23.7 16.3 24.9 16.9zm1.4-4.8c1.1 0 2 1 2 2.2 0 1.2-.9 2.2-2 2.2s-2-1-2-2.2c0-1.3.9-2.2 2-2.2zM135.5 69.7c1.3-1.1 1.5-3 .5-4.4-1-1.4-2.8-1.6-4.1-.5-1 .9-15.3 15.4-20.7 20.9l.8.1c6.7-4.5 22.5-15.3 23.5-16.1zm-1.8-4.6c1.1 0 2 1 2 2.2 0 1.2-.9 2.2-2 2.2s-2-1-2-2.2c0-1.3.9-2.2 2-2.2zM125.5 116.6c1 1.4 2.8 1.6 4.1.6 1.3-1 1.5-3 .6-4.4-.8-1.1-13.5-15.9-18.7-22l-.8-.1c3.8 6.8 14 24.8 14.8 25.9zm2.4-4c1.1 0 2 1 2 2.2 0 1.2-.9 2.2-2 2.2s-2-1-2-2.2c0-1.2.9-2.2 2-2.2zM122.1 89.3l-1.6-.7c-1.4.2-2.3.3-2.3.3s.6-.2 1.6-.6l-5.3-2.3-2.4-.3c-1.7 1.2-2.8 1.9-2.8 1.9s.8-.8 2-2.1L93.5 83c-.8.6-1.3.9-1.3.9l.9-.9-1.6-.2-1.7 2.3 1.1 2.7.9.1-.1-.2s.1.1.2.3l18.8 2.6c-.9-1.6-1.4-2.5-1.4-2.5s.9 1 2.3 2.7l2.4.3 5.7-.7-1.5-1s.8.3 2.2.9l1.7-.2c-2.5-.6-4-1-4-1s1.5.1 4 .2zM110.6 71.5c.9-.7 1.1-2.1.4-3.1-.7-1-2-1.1-2.9-.4-.8.6-11.8 11.7-15.1 15l.4.1c4.1-2.7 16.5-11 17.2-11.6zm-1.2-3c.6 0 1.2.6 1.2 1.3 0 .7-.5 1.2-1.2 1.2-.6 0-1.2-.6-1.2-1.2 0-.7.5-1.3 1.2-1.3zM103.3 107.7c.7 1 2 1.1 2.9.4.9-.7 1.1-2.1.4-3.1-.6-.9-12.9-14.9-14.7-16.9h-.1c1.2 2.2 10.8 18.7 11.5 19.6zm1.5-2.6c.6 0 1.2.6 1.2 1.2 0 .7-.5 1.2-1.2 1.2-.6 0-1.2-.6-1.2-1.2.1-.6.6-1.2 1.2-1.2zM107.6 53.3c7.7-8.8 28.8-33 30-34.7 1.5-2.1 1.1-5.1-.8-6.8-2-1.6-4.8-1.2-6.3.9-1.2 1.7-17.6 29.8-23.5 40.1l1.3-1.1-.7 1.6zm24.8-38.6c.6-1 1.8-1.4 2.7-.8 1 .6 1.3 1.9.7 2.9-.6 1-1.8 1.4-2.7.8-.9-.6-1.3-1.9-.7-2.9zM117 25.5c.5-1.6-.3-3.4-1.9-3.9-1.5-.5-3.2.4-3.7 2-.4 1.4-5 24.2-6.4 30.8l.6-.5c2.9-6.9 11-27.1 11.4-28.4zm-4.5-2.1c.6-1 1.8-1.4 2.7-.8 1 .6 1.3 1.9.7 2.9-.6 1-1.8 1.4-2.7.8-.9-.6-1.3-1.9-.7-2.9zM132.8 41.1c1.4-.9 1.7-2.9.9-4.3-.9-1.5-2.7-1.9-4-.9-1.1.8-17.2 14.4-22.7 19.1l-.3.7c5.6-3.1 25-13.8 26.1-14.6zm-.5-4.5c1 .6 1.3 1.9.7 2.9-.6 1-1.8 1.4-2.7.8-1-.6-1.3-1.9-.7-2.9.5-1.1 1.8-1.4 2.7-.8zM97.8 30.5c-.2-1.7-1.7-2.9-3.3-2.7-1.6.2-2.7 1.8-2.5 3.5.2 1.4 4.8 21.9 6.5 29.6l.5-.7c-.2-8.3-1-28.3-1.2-29.7zM96.7 32c-.6 1-1.8 1.4-2.7.8-1-.6-1.3-1.9-.7-2.9.6-1 1.8-1.4 2.7-.8 1 .5 1.3 1.8.7 2.9zM130.8 63.2c1.6-.2 2.7-1.8 2.5-3.5-.2-1.7-1.6-2.9-3.2-2.7-1.3.2-19.6 4.6-27.2 6.4l-.5.7c7.4-.2 27.1-.7 28.4-.9zm.7-4.9c1 .6 1.3 1.9.7 2.9-.6 1-1.8 1.4-2.7.8-1-.6-1.3-1.9-.7-2.9.5-1.1 1.7-1.4 2.7-.8zM104.9 56.5s.8-1.4 2.1-3.7l-1.3 1.1c-.6 1.4-.9 2.3-.9 2.3s.1-.7.4-1.8l-4.5 3.8-1.5 2.1c.1 2.2.1 3.6.1 3.6s-.3-1.1-.7-2.9L87.7 76.3c0 1.1.1 1.7.1 1.7s-.1-.5-.3-1.4l-1 1.3 1.1 2.7 2.7.4.6-.8h-.3s.1 0 .3-.1L102.4 64c-1.7 0-2.8.1-2.8.1s1.3-.3 3.3-.8l1.5-2.1 2.3-5.6c-1 .5-1.5.8-1.5.8s.7-.6 1.8-1.6l.7-1.7c-1.8 2.2-2.8 3.4-2.8 3.4zM86.9 54.5c-.1-1.2-1.2-2-2.3-1.9-1.1.2-1.9 1.3-1.8 2.5.1 1 3.5 16.8 4.6 21.5l.2-.3c-.1-5.2-.6-20.8-.7-21.8zm-1 1c-.3.6-1 .8-1.6.5-.6-.3-.7-1.1-.4-1.7.3-.6 1-.8 1.6-.5.5.3.7 1.1.4 1.7zM112.4 79.4c1.1-.2 1.9-1.3 1.8-2.5-.2-1.2-1.2-2-2.3-1.9-1 .1-18.5 4.5-21 5.1l-.1.1c2.5 0 20.6-.6 21.6-.8zm.3-3.2c.6.3.7 1.1.4 1.7-.3.6-1 .8-1.6.5-.6-.3-.7-1.1-.4-1.7.4-.6 1.1-.8 1.6-.5zM70.7 48.2C67.4 36.7 58.5 5 57.7 3 56.8.5 54.1-.6 51.8.4c-2.3 1-3.4 3.8-2.4 6.3.8 2 15.3 31.2 20.6 41.8l-.2-1.7.9 1.4zM54.6 6.7c-1 .6-2.2.2-2.7-.8-.6-1-.2-2.3.7-2.9 1-.6 2.2-.2 2.7.8.6.9.3 2.3-.7 2.9zM52.9 25.6c-1.1-1.3-2.9-1.4-4.1-.2-1.2 1.2-1.3 3.1-.2 4.4.9 1.1 17 16.7 21.7 21.3l-.1-.8c-4.2-6-16.4-23.7-17.3-24.7zm-1.2 3.9c-1 .6-2.2.2-2.7-.8-.6-1-.2-2.3.7-2.9 1-.6 2.2-.2 2.7.8.6 1 .2 2.3-.7 2.9zM73.5 18.7c-.1-1.7-1.4-3-3-3-1.6.1-2.8 1.6-2.8 3.3.1 1.4 3.1 23.2 4.1 30.6l.4.6c.3-6.7 1.3-30 1.3-31.5zm-4.7 1.1c-.6-1-.2-2.3.7-2.9 1-.6 2.2-.2 2.7.8.6 1 .2 2.3-.7 2.9-.9.6-2.1.3-2.7-.8zM47.4 45.9c-1.5-.6-3.2.1-3.8 1.7-.6 1.6.1 3.4 1.6 4.1 1.2.5 20.1 6.5 27.2 8.8l-.3-.8c-6.9-4-23.5-13.3-24.7-13.8zm-.1 4.7c-1 .6-2.2.2-2.7-.8-.6-1-.2-2.3.7-2.9 1-.6 2.2-.2 2.7.8.6 1 .2 2.3-.7 2.9zM90.3 31.7c.6-1.6-.1-3.4-1.5-4.1-1.5-.7-3.2.1-3.8 1.7-.5 1.3-6.1 20.4-8.4 28.4l.3.8c3.5-7 12.9-25.6 13.4-26.8zm-3.7-3.1c1-.6 2.2-.2 2.7.8.6 1 .2 2.3-.7 2.9-1 .6-2.2.2-2.7-.8-.6-1-.2-2.4.7-2.9zM84.1 77.2l-7.2-18.7-1.3 2.6s.4-1.3 1-3.5l-.9-2.4-3.4-4.9c-.1 1.2-.1 1.9-.1 1.9s-.1-.9-.3-2.5l-1-1.5c.7 2.6 1.2 4.2 1.2 4.2s-.7-1.5-1.9-3.8l.2 1.8c.9 1.2 1.4 2 1.4 2s-.5-.5-1.3-1.2l.8 6.1.9 2.4c1.8 1 3 1.7 3 1.7s-1-.3-2.7-.8l6.9 17.8c.9.5 1.4.8 1.4.8s-.5-.1-1.2-.4l.6 1.6 2.7.4 1.7-2.3-.5-1.3c0 .2-.1.3-.1.3s0-.1.1-.3zM61.3 68c-1-.5-2.2.1-2.7 1.2-.4 1.1.1 2.4 1.1 2.9.9.4 15.3 5.1 19.7 6.5l-.2-.4c-4.2-2.4-17-9.8-17.9-10.2zm-.2 3.2c-.6.3-1.3.1-1.6-.5-.3-.6-.1-1.4.4-1.7.6-.3 1.3-.1 1.6.5.4.6.2 1.3-.4 1.7zM93.1 53.9c-1-.5-2.2.1-2.7 1.2-.4 1-5.6 19.4-6.4 22.1v.1c1.1-2.3 9.7-19.5 10.1-20.5.5-1.1 0-2.4-1-2.9zm-.2 3.2c-.6.3-1.3.1-1.6-.5-.3-.6-.1-1.4.4-1.7.6-.3 1.3-.1 1.6.5.4.6.2 1.3-.4 1.7z"/><ellipse cx="46.6" cy="49.3" rx="2" ry="2.2"/></g></svg>