<svg xmlns="http://www.w3.org/2000/svg" viewBox="0 0 170.1 170.1" enable-background="new 0 0 170.1 170.1"><g fill="#fff"><path d="M34.825 19.253l2.487-6.005L61.98 23.463l-2.487 6.006zM64.934 27.187L58.93 24.7 69.146.032l6.005 2.487zM44.15 41.887l2.487-6.006 24.668 10.217-2.487 6.005zM74.327 49.833l-6.005-2.488L78.54 22.677l6.005 2.488zM52.22 61.26l2.487-6.005 24.668 10.218-2.488 6.005zM82.336 69.205l-6.005-2.487L86.55 42.05l6.004 2.487zM57.128 25.51l6.652-2.755 20.322 49.06-6.652 2.755zM2.92 74.036L.435 68.03l24.668-10.215 2.487 6.005zM29.932 58.284l-6.005 2.487L13.71 36.104l6.004-2.487zM25.593 83.4l-2.486-6.006L47.775 67.18l2.487 6.004zM52.578 67.677l-6.005 2.49L36.35 45.5l6.005-2.488zM44.937 91.445L42.45 85.44l24.668-10.218 2.487 6.005zM71.862 75.723l-6.005 2.486-10.213-24.67 6.005-2.485zM23.26 62.673l2.756-6.65L75.07 76.347 72.312 83zM19.15 135.3l-6.006-2.486 10.218-24.67 6.006 2.49zM27.148 105.1l-2.487 6.005L-.006 100.89l2.487-6.006zM41.933 125.86l-6.005-2.487 10.216-24.668 6.005 2.487zM49.814 95.728l-2.486 6.006-24.67-10.213 2.485-6.005zM61.185 117.908l-6.006-2.487 10.215-24.668L71.4 93.24zM69.16 87.688l-2.49 6.005L42.005 83.47l2.49-6.005zM25.48 112.963l-2.756-6.65 49.054-20.328 2.756 6.65zM73.953 167.11l-6.005 2.488-10.216-24.668 6.006-2.487zM58.356 140.18l2.488 6.006-24.668 10.218-2.488-6.006zM83.442 144.42l-6.005 2.488-10.215-24.668 6.005-2.487zM67.69 117.545l2.487 6.005-24.665 10.223-2.49-6.005zM91.353 125.078l-6.005 2.487-10.22-24.668 6.007-2.487zM75.758 98.176l2.487 6.005-24.668 10.216-2.487-6.005zM62.655 146.822l-6.652-2.754 20.31-49.06 6.653 2.755zM135.273 150.92l-2.488 6.004-24.665-10.22 2.488-6.006zM105.168 142.89l6.006 2.488-10.218 24.668-6.006-2.487zM125.91 128.254l-2.488 6.006-24.668-10.216 2.487-6.005zM95.742 120.275l6.006 2.487-10.216 24.668-6.005-2.487zM117.9 108.818l-2.49 6.005-24.665-10.22 2.488-6.006zM87.772 100.88l6.004 2.49-10.226 24.662-6.004-2.49zM112.986 144.587l-6.652 2.756-20.32-49.06 6.65-2.755zM167.156 96.082l2.487 6.005-24.668 10.215-2.487-6.005zM140.133 111.778l6.005-2.488 10.22 24.665-6.004 2.49zM144.48 86.658l2.49 6.005-24.666 10.22-2.488-6.004zM117.53 102.35l6.005-2.486 10.215 24.668-6.005 2.487zM125.147 78.692l2.487 6.006-24.668 10.215-2.487-6.005zM98.134 94.37l6.006-2.485 10.212 24.668-6.005 2.487zM146.835 107.428l-2.754 6.652-49.06-20.316 2.756-6.653zM150.866 34.77l6.004 2.487-10.22 24.666-6.005-2.488zM142.94 64.903l2.484-6.006 24.67 10.21-2.484 6.006zM128.166 44.156l6.006 2.487-10.216 24.668-6.005-2.486zM120.263 74.313l2.488-6.006 24.67 10.218-2.49 6.006zM108.878 52.17l6.005 2.488-10.218 24.668-6.005-2.487zM100.888 82.38l2.488-6.006 24.666 10.22-2.49 6.006zM144.572 57.09l2.756 6.653L98.275 84.07l-2.757-6.652zM96.044 2.97L102.05.482l10.213 24.67-6.006 2.487zM111.73 29.92l-2.49-6.005 24.667-10.223 2.49 6.004zM86.648 25.675l6.006-2.486 10.215 24.667-6.006 2.487zM102.366 52.59l-2.487-6.004 24.667-10.215 2.487 6.006zM78.636 44.97l6.006-2.49L94.86 67.15l-6.005 2.487zM94.316 71.93l-2.486-6.006 24.67-10.21 2.486 6.006zM107.415 23.237l6.653 2.754-20.31 49.066-6.653-2.754z"/></g></svg>