<svg xmlns="http://www.w3.org/2000/svg" viewBox="0 0 170.1 170.1" enable-background="new 0 0 170.1 170.1"><g fill="#fff"><path d="M81.6 0h7v86.8h-7zM96.52 4.536l4.95 4.95L88.035 22.92l-4.95-4.95zM102.762 57.2l4.95 4.95-19.728 19.727-4.95-4.95zM113.137 18.368l4.95 4.95L88.034 53.37l-4.95-4.95zM87.02 17.912l-4.95 4.95L68.635 9.423l4.95-4.95zM86.98 76.875l-4.95 4.95-19.728-19.73 4.95-4.95zM87.006 48.393l-4.95 4.95-30.048-30.057 4.95-4.95zM81.6 83.2h7V170h-7zM73.605 165.587l-4.95-4.95 13.438-13.433 4.95 4.95zM67.268 112.918l-4.95-4.95L82.05 88.242l4.95 4.95zM56.97 151.724l-4.95-4.95 30.053-30.052 4.95 4.95zM83.103 152.124l4.95-4.95 13.435 13.435-4.95 4.95zM83.042 93.164l4.95-4.95 19.728 19.73-4.95 4.95zM83.104 121.68l4.95-4.95 30.048 30.056-4.95 4.95zM0 81.6h86.8v7H0zM4.49 73.558l4.95-4.95 13.433 13.438-4.95 4.95zM57.14 67.277l4.95-4.95L81.814 82.06l-4.95 4.948zM18.344 56.878l4.95-4.95L53.346 81.98l-4.95 4.95zM17.912 83.1l4.95 4.95-13.436 13.435-4.95-4.95zM76.852 83.09l4.95 4.95-19.728 19.728-4.95-4.95zM48.452 83.092l4.95 4.95-30.057 30.048-4.95-4.95zM83.2 81.6H170v7H83.2zM165.545 96.49l-4.95 4.95-13.435-13.434 4.95-4.95zM112.856 102.76l-4.95 4.95L88.18 87.98l4.95-4.95zM151.772 113.12l-4.95 4.95-30.052-30.052 4.95-4.95zM152.112 87.022l-4.95-4.95L160.6 68.637l4.95 4.95zM93.142 87.03l-4.95-4.95 19.73-19.73 4.948 4.95zM121.666 87.064l-4.95-4.95 30.057-30.048 4.95 4.95zM22.433 27.395l4.95-4.95L88.76 83.82l-4.95 4.95zM36.2 20h7v19h-7zM77.9 52.8h7v27.9h-7zM57.8 18h7v42.5h-7zM20 36.2h19v7H20zM52.8 77.9h27.9v7H52.8zM18 57.8h42.5v7H18zM147.596 142.686l-4.95 4.95L81.27 86.258l4.95-4.95zM126.9 131.1h7v19h-7zM85.2 89.4h7v27.9h-7zM105.4 109.5h7V152h-7zM131.1 126.9h19v7h-19zM89.4 85.2h27.9v7H89.4zM109.5 105.4H152v7h-42.5zM142.71 22.458l4.95 4.95-61.376 61.376-4.95-4.95zM131.1 36.2h19v7h-19zM89.4 77.9h27.9v7H89.4zM109.5 57.8H152v7h-42.5zM126.9 20h7v19h-7zM85.2 52.8h7v27.9h-7zM105.4 18h7v42.5h-7zM27.417 147.62l-4.95-4.95 61.377-61.376 4.95 4.95zM20 126.9h19v7H20zM52.8 85.2h27.9v7H52.8zM18 105.4h42.5v7H18zM36.2 131.1h7v19h-7zM77.9 89.4h7v27.9h-7zM57.8 109.5h7V152h-7z"/></g></svg>