<?xml version="1.0" encoding="utf-8"?>
<!-- Generator: Adobe Illustrator 18.1.0, SVG Export Plug-In . SVG Version: 6.00 Build 0)  -->
<!DOCTYPE svg PUBLIC "-//W3C//DTD SVG 1.1//EN" "http://www.w3.org/Graphics/SVG/1.1/DTD/svg11.dtd">
<svg version="1.1" id="Layer_1" xmlns="http://www.w3.org/2000/svg" xmlns:xlink="http://www.w3.org/1999/xlink" x="0px" y="0px"
	 viewBox="0 0 171.8 171.8" enable-background="new 0 0 171.8 171.8" xml:space="preserve">
<g>
	<g>
		
			<rect x="65.3" y="14.6" transform="matrix(0.8912 -0.4536 0.4536 0.8912 -14.5813 35.4806)" fill="#FFFFFF" width="2.8" height="67"/>
		<g>
			<polygon fill="#FFFFFF" points="61.7,2.7 52.5,17.8 53.2,19 53.4,19.5 			"/>
			<polygon fill="#FFFFFF" points="32.9,17.4 50.4,18.9 51.1,20.1 51.3,20.6 			"/>
		</g>
		<g>
			<polygon fill="#FFFFFF" points="76.8,16.8 63.3,39 64.2,40.9 64.6,41.6 			"/>
			<polygon fill="#FFFFFF" points="35.4,37.9 61.3,40 62.2,41.9 62.6,42.6 			"/>
		</g>
		<g>
			<polygon fill="#FFFFFF" points="83.7,42.7 73.4,59.6 74.1,61 74.4,61.5 			"/>
			<polygon fill="#FFFFFF" points="52.3,58.7 71.9,60.3 72.7,61.7 72.9,62.2 			"/>
		</g>
		<g>
			<polygon fill="#FFFFFF" points="70.7,95 81,78.1 80.3,76.7 80,76.2 			"/>
			<polygon fill="#FFFFFF" points="102.1,79 82.5,77.4 81.8,76 81.5,75.5 			"/>
		</g>
	</g>
	<g>
		
			<rect x="103.7" y="90.1" transform="matrix(-0.8912 0.4536 -0.4536 -0.8912 254.8167 186.115)" fill="#FFFFFF" width="2.8" height="67"/>
		<g>
			<polygon fill="#FFFFFF" points="110,169 119.2,154 118.6,152.7 118.3,152.2 			"/>
			<polygon fill="#FFFFFF" points="138.9,154.3 121.3,152.9 120.7,151.6 120.4,151.2 			"/>
		</g>
		<g>
			<polygon fill="#FFFFFF" points="94.9,154.9 108.5,132.7 107.5,130.9 107.2,130.2 			"/>
			<polygon fill="#FFFFFF" points="136.4,133.8 110.4,131.7 109.5,129.9 109.2,129.2 			"/>
		</g>
		<g>
			<polygon fill="#FFFFFF" points="88.1,129 98.3,112.2 97.6,110.8 97.4,110.3 			"/>
			<polygon fill="#FFFFFF" points="119.5,113 99.8,111.4 99.1,110 98.8,109.5 			"/>
		</g>
		<g>
			<polygon fill="#FFFFFF" points="101,76.8 90.8,93.6 91.5,95 91.7,95.5 			"/>
			<polygon fill="#FFFFFF" points="69.6,92.8 89.3,94.4 90,95.8 90.2,96.3 			"/>
		</g>
	</g>
	<g>
		
			<rect x="46.7" y="71.6" transform="matrix(-0.4537 -0.8911 0.8911 -0.4537 -23.6746 195.6595)" fill="#FFFFFF" width="2.8" height="67"/>
		<g>
			<polygon fill="#FFFFFF" points="2.7,110 17.8,119.2 19,118.6 19.5,118.3 			"/>
			<polygon fill="#FFFFFF" points="17.4,138.9 18.9,121.3 20.1,120.7 20.6,120.4 			"/>
		</g>
		<g>
			<polygon fill="#FFFFFF" points="16.8,94.9 39,108.5 40.9,107.5 41.6,107.2 			"/>
			<polygon fill="#FFFFFF" points="37.9,136.4 40,110.4 41.9,109.5 42.6,109.2 			"/>
		</g>
		<g>
			<polygon fill="#FFFFFF" points="42.7,88.1 59.6,98.3 61,97.6 61.5,97.4 			"/>
			<polygon fill="#FFFFFF" points="58.7,119.5 60.3,99.8 61.7,99.1 62.2,98.8 			"/>
		</g>
		<g>
			<polygon fill="#FFFFFF" points="95,101 78.1,90.8 76.7,91.5 76.2,91.7 			"/>
			<polygon fill="#FFFFFF" points="79,69.6 77.4,89.3 76,90 75.5,90.2 			"/>
		</g>
	</g>
	<g>
		
			<rect x="122.2" y="33.1" transform="matrix(0.4537 0.8912 -0.8912 0.4537 126.9421 -73.7429)" fill="#FFFFFF" width="2.8" height="67"/>
		<g>
			<polygon fill="#FFFFFF" points="169,61.7 154,52.5 152.7,53.2 152.2,53.4 			"/>
			<polygon fill="#FFFFFF" points="154.3,32.9 152.9,50.4 151.6,51.1 151.2,51.3 			"/>
		</g>
		<g>
			<polygon fill="#FFFFFF" points="154.9,76.8 132.7,63.3 130.9,64.2 130.2,64.6 			"/>
			<polygon fill="#FFFFFF" points="133.8,35.4 131.7,61.3 129.9,62.2 129.2,62.6 			"/>
		</g>
		<g>
			<polygon fill="#FFFFFF" points="129,83.7 112.2,73.4 110.8,74.1 110.3,74.4 			"/>
			<polygon fill="#FFFFFF" points="113,52.3 111.4,71.9 110,72.7 109.5,72.9 			"/>
		</g>
		<g>
			<polygon fill="#FFFFFF" points="76.8,70.7 93.6,81 95,80.3 95.5,80 			"/>
			<polygon fill="#FFFFFF" points="92.8,102.1 94.4,82.5 95.8,81.8 96.3,81.5 			"/>
		</g>
	</g>
	<g>
		
			<rect x="97.6" y="12.1" transform="matrix(0.9509 0.3095 -0.3095 0.9509 18.9779 -28.3986)" fill="#FFFFFF" width="2.8" height="67"/>
		<g>
			<polygon fill="#FFFFFF" points="127.6,10 110.4,14.2 110,15.5 109.9,16 			"/>
			<polygon fill="#FFFFFF" points="96.8,0 108.2,13.4 107.8,14.8 107.6,15.3 			"/>
		</g>
		<g>
			<polygon fill="#FFFFFF" points="128.3,30.7 103,36.8 102.4,38.7 102.1,39.5 			"/>
			<polygon fill="#FFFFFF" points="84.1,16.3 100.9,36.1 100.3,38.1 100,38.8 			"/>
		</g>
		<g>
			<polygon fill="#FFFFFF" points="114.8,53.8 95.7,58.5 95.2,60 95,60.5 			"/>
			<polygon fill="#FFFFFF" points="81.3,42.9 94.1,58 93.6,59.4 93.4,60 			"/>
		</g>
		<g>
			<polygon fill="#FFFFFF" points="68.7,81.6 87.9,77 88.4,75.5 88.6,74.9 			"/>
			<polygon fill="#FFFFFF" points="102.3,92.5 89.5,77.5 90,76 90.2,75.4 			"/>
		</g>
	</g>
	<g>
		
			<rect x="71.4" y="92.6" transform="matrix(-0.9509 -0.3094 0.3094 -0.9509 102.9394 268.6218)" fill="#FFFFFF" width="2.8" height="67"/>
		<g>
			<polygon fill="#FFFFFF" points="44.2,161.7 61.3,157.6 61.7,156.2 61.9,155.8 			"/>
			<polygon fill="#FFFFFF" points="75,171.8 63.5,158.3 64,157 64.1,156.5 			"/>
		</g>
		<g>
			<polygon fill="#FFFFFF" points="43.5,141.1 68.7,135 69.4,133 69.6,132.3 			"/>
			<polygon fill="#FFFFFF" points="87.7,155.5 70.8,135.7 71.5,133.7 71.7,133 			"/>
		</g>
		<g>
			<polygon fill="#FFFFFF" points="56.9,117.9 76.1,113.3 76.6,111.8 76.7,111.2 			"/>
			<polygon fill="#FFFFFF" points="90.4,128.8 77.7,113.8 78.1,112.3 78.3,111.7 			"/>
		</g>
		<g>
			<polygon fill="#FFFFFF" points="103,90.2 83.8,94.8 83.4,96.3 83.2,96.8 			"/>
			<polygon fill="#FFFFFF" points="69.5,79.3 82.3,94.3 81.8,95.8 81.6,96.3 			"/>
		</g>
	</g>
	<g>
		
			<rect x="124.8" y="65.5" transform="matrix(-0.3097 0.9508 -0.9508 -0.3097 259.3288 9.6886)" fill="#FFFFFF" width="2.8" height="67"/>
		<g>
			<polygon fill="#FFFFFF" points="161.7,127.6 157.6,110.4 156.2,110 155.8,109.9 			"/>
			<polygon fill="#FFFFFF" points="171.8,96.8 158.3,108.2 157,107.8 156.5,107.6 			"/>
		</g>
		<g>
			<polygon fill="#FFFFFF" points="141.1,128.3 135,103 133,102.4 132.3,102.1 			"/>
			<polygon fill="#FFFFFF" points="155.5,84.1 135.7,100.9 133.7,100.3 133,100 			"/>
		</g>
		<g>
			<polygon fill="#FFFFFF" points="117.9,114.8 113.3,95.7 111.8,95.2 111.2,95 			"/>
			<polygon fill="#FFFFFF" points="128.8,81.3 113.8,94.1 112.3,93.6 111.7,93.4 			"/>
		</g>
		<g>
			<polygon fill="#FFFFFF" points="90.2,68.7 94.8,87.9 96.3,88.4 96.8,88.6 			"/>
			<polygon fill="#FFFFFF" points="79.3,102.3 94.3,89.5 95.8,90 96.3,90.2 			"/>
		</g>
	</g>
	<g>
		
			<rect x="44.2" y="39.2" transform="matrix(0.3096 -0.9509 0.9509 0.3096 -37.7116 93.6027)" fill="#FFFFFF" width="2.8" height="67"/>
		<g>
			<polygon fill="#FFFFFF" points="10,44.2 14.2,61.3 15.5,61.7 16,61.9 			"/>
			<polygon fill="#FFFFFF" points="0,75 13.4,63.5 14.8,64 15.3,64.1 			"/>
		</g>
		<g>
			<polygon fill="#FFFFFF" points="30.7,43.5 36.8,68.7 38.7,69.4 39.5,69.6 			"/>
			<polygon fill="#FFFFFF" points="16.3,87.7 36.1,70.8 38.1,71.5 38.8,71.7 			"/>
		</g>
		<g>
			<polygon fill="#FFFFFF" points="53.8,56.9 58.5,76.1 60,76.6 60.5,76.7 			"/>
			<polygon fill="#FFFFFF" points="42.9,90.4 58,77.7 59.4,78.2 60,78.3 			"/>
		</g>
		<g>
			<polygon fill="#FFFFFF" points="81.6,103 77,83.8 75.5,83.4 74.9,83.2 			"/>
			<polygon fill="#FFFFFF" points="92.5,69.5 77.5,82.3 76,81.8 75.4,81.6 			"/>
		</g>
	</g>
</g>
</svg>
