<?xml version="1.0" encoding="utf-8"?>
<!-- Generator: Adobe Illustrator 18.1.0, SVG Export Plug-In . SVG Version: 6.00 Build 0)  -->
<!DOCTYPE svg PUBLIC "-//W3C//DTD SVG 1.1//EN" "http://www.w3.org/Graphics/SVG/1.1/DTD/svg11.dtd">
<svg version="1.1" id="Layer_1" xmlns="http://www.w3.org/2000/svg" xmlns:xlink="http://www.w3.org/1999/xlink" x="0px" y="0px"
	 viewBox="0 0 170.1 170.1" enable-background="new 0 0 170.1 170.1" xml:space="preserve">
<g>
	<g>
		<g>
			
				<rect x="45.1" y="8" transform="matrix(0.3826 -0.9239 0.9239 0.3826 10.1789 57.8603)" fill="#FFFFFF" width="6.5" height="26.7"/>
			
				<rect x="63.8" y="0.2" transform="matrix(-0.9239 -0.3827 0.3827 -0.9239 123.8024 51.7884)" fill="#FFFFFF" width="6.5" height="26.7"/>
		</g>
		<g>
			
				<rect x="54.5" y="30.6" transform="matrix(0.3826 -0.9239 0.9239 0.3826 -4.9734 80.5317)" fill="#FFFFFF" width="6.5" height="26.7"/>
			
				<rect x="73.2" y="22.9" transform="matrix(-0.9239 -0.3827 0.3827 -0.9239 133.1928 99.0038)" fill="#FFFFFF" width="6.5" height="26.7"/>
		</g>
		<g>
			
				<rect x="62.5" y="50" transform="matrix(0.3827 -0.9239 0.9239 0.3827 -17.8946 99.8689)" fill="#FFFFFF" width="6.5" height="26.7"/>
			
				<rect x="81.2" y="42.2" transform="matrix(-0.9239 -0.3827 0.3827 -0.9239 141.2069 139.2692)" fill="#FFFFFF" width="6.5" height="26.7"/>
		</g>
		
			<rect x="67" y="22.1" transform="matrix(0.9239 -0.3827 0.3827 0.9239 -13.2308 30.7334)" fill="#FFFFFF" width="7.2" height="53.1"/>
	</g>
	<g>
		<g>
			
				<rect x="10.8" y="52.5" transform="matrix(-0.3826 -0.9239 0.9239 -0.3826 -41.4515 104.1003)" fill="#FFFFFF" width="6.5" height="26.7"/>
			
				<rect x="18.5" y="33.9" transform="matrix(-0.9239 0.3827 -0.3827 -0.9239 59.9979 82.5241)" fill="#FFFFFF" width="6.5" height="26.7"/>
		</g>
		<g>
			
				<rect x="33.5" y="61.9" transform="matrix(-0.3826 -0.9239 0.9239 -0.3826 -18.7789 138.033)" fill="#FFFFFF" width="6.5" height="26.7"/>
			
				<rect x="41.2" y="43.3" transform="matrix(-0.9238 0.3829 -0.3829 -0.9238 107.2181 91.9021)" fill="#FFFFFF" width="6.5" height="26.7"/>
		</g>
		<g>
			
				<rect x="52.8" y="69.9" transform="matrix(-0.3827 -0.9239 0.9239 -0.3827 0.563 166.9777)" fill="#FFFFFF" width="6.5" height="26.7"/>
			
				<rect x="60.6" y="51.3" transform="matrix(-0.9239 0.3825 -0.3825 -0.9239 147.4726 99.9396)" fill="#FFFFFF" width="6.5" height="26.7"/>
		</g>
		
			<rect x="45.5" y="43" transform="matrix(0.3828 -0.9238 0.9238 0.3828 -33.8813 88.2456)" fill="#FFFFFF" width="7.2" height="53.1"/>
	</g>
	<g>
		<g>
			
				<rect x="18.1" y="108.3" transform="matrix(-0.9239 -0.3827 0.3827 -0.9239 -5.5743 242.2864)" fill="#FFFFFF" width="6.5" height="26.7"/>
			
				<rect x="10.3" y="89.7" transform="matrix(-0.3826 0.9239 -0.9239 -0.3826 113.9628 129.9026)" fill="#FFFFFF" width="6.5" height="26.7"/>
		</g>
		<g>
			
				<rect x="40.7" y="99" transform="matrix(-0.9239 -0.3826 0.3826 -0.9239 41.6588 232.8976)" fill="#FFFFFF" width="6.5" height="26.7"/>
			
				<rect x="33" y="80.3" transform="matrix(-0.3825 0.924 -0.924 -0.3825 136.6339 95.9507)" fill="#FFFFFF" width="6.5" height="26.7"/>
		</g>
		<g>
			
				<rect x="60.1" y="90.9" transform="matrix(-0.9239 -0.3826 0.3826 -0.9239 81.9328 224.8843)" fill="#FFFFFF" width="6.5" height="26.7"/>
			
				<rect x="52.3" y="72.3" transform="matrix(-0.3829 0.9238 -0.9238 -0.3829 155.9756 67.0571)" fill="#FFFFFF" width="6.5" height="26.7"/>
		</g>
		
			<rect x="45" y="72.9" transform="matrix(-0.3828 -0.9238 0.9238 -0.3828 -24.6388 182.44)" fill="#FFFFFF" width="7.2" height="53.1"/>
	</g>
	<g>
		<g>
			
				<rect x="62.7" y="142.7" transform="matrix(-0.9239 0.3826 -0.3826 -0.9239 186.4788 274.9628)" fill="#FFFFFF" width="6.5" height="26.7"/>
			
				<rect x="44" y="134.9" transform="matrix(0.3827 0.9239 -0.9239 0.3827 166.1517 47.9024)" fill="#FFFFFF" width="6.5" height="26.7"/>
		</g>
		<g>
			
				<rect x="72" y="120" transform="matrix(-0.9239 0.3826 -0.3826 -0.9239 195.8751 227.7416)" fill="#FFFFFF" width="6.5" height="26.7"/>
			
				<rect x="53.4" y="112.3" transform="matrix(0.3829 0.9238 -0.9238 0.3829 150.9844 25.2143)" fill="#FFFFFF" width="6.5" height="26.7"/>
		</g>
		<g>
			
				<rect x="80.1" y="100.7" transform="matrix(-0.9239 0.3827 -0.3827 -0.9239 203.8952 187.4602)" fill="#FFFFFF" width="6.5" height="26.7"/>
			
				<rect x="61.4" y="92.9" transform="matrix(0.3826 0.9239 -0.9239 0.3826 138.0967 5.9047)" fill="#FFFFFF" width="6.5" height="26.7"/>
		</g>
		
			<rect x="65.9" y="94.5" transform="matrix(-0.9239 -0.3825 0.3825 -0.9239 87.3937 259.3377)" fill="#FFFFFF" width="7.2" height="53.1"/>
	</g>
	<g>
		<g>
			
				<rect x="118.5" y="135.4" transform="matrix(-0.3828 0.9238 -0.9238 -0.3828 305.7178 93.2798)" fill="#FFFFFF" width="6.5" height="26.7"/>
			
				<rect x="99.8" y="143.1" transform="matrix(0.9239 0.3827 -0.3827 0.9239 67.7274 -27.5128)" fill="#FFFFFF" width="6.5" height="26.7"/>
		</g>
		<g>
			
				<rect x="109.1" y="112.7" transform="matrix(-0.3826 0.9239 -0.9239 -0.3826 271.7744 70.5759)" fill="#FFFFFF" width="6.5" height="26.7"/>
			
				<rect x="90.4" y="120.5" transform="matrix(0.9239 0.3826 -0.3826 0.9239 58.3251 -25.642)" fill="#FFFFFF" width="6.5" height="26.7"/>
		</g>
		<g>
			
				<rect x="101" y="93.4" transform="matrix(-0.3828 0.9238 -0.9238 -0.3828 242.8443 51.2676)" fill="#FFFFFF" width="6.5" height="26.7"/>
			
				<rect x="82.4" y="101.1" transform="matrix(0.9237 0.383 -0.383 0.9237 50.3805 -24.0651)" fill="#FFFFFF" width="6.5" height="26.7"/>
		</g>
		
			<rect x="95.8" y="94.9" transform="matrix(-0.9239 0.3827 -0.3827 -0.9239 237.8143 195.6026)" fill="#FFFFFF" width="7.2" height="53.1"/>
	</g>
	<g>
		<g>
			
				<rect x="152.8" y="90.8" transform="matrix(0.3826 0.9239 -0.9239 0.3826 192.585 -79.8303)" fill="#FFFFFF" width="6.5" height="26.7"/>
			
				<rect x="145" y="109.5" transform="matrix(0.9238 -0.3828 0.3828 0.9238 -35.7344 66.128)" fill="#FFFFFF" width="6.5" height="26.7"/>
		</g>
		<g>
			
				<rect x="130.1" y="81.4" transform="matrix(0.3828 0.9238 -0.9238 0.3828 169.8765 -64.688)" fill="#FFFFFF" width="6.5" height="26.7"/>
			
				<rect x="122.4" y="100.1" transform="matrix(0.9239 -0.3826 0.3826 0.9239 -33.8543 56.6991)" fill="#FFFFFF" width="6.5" height="26.7"/>
		</g>
		<g>
			
				<rect x="110.8" y="73.4" transform="matrix(0.3826 0.9239 -0.9239 0.3826 150.5694 -51.7588)" fill="#FFFFFF" width="6.5" height="26.7"/>
			
				<rect x="103" y="92.1" transform="matrix(0.9239 -0.3825 0.3825 0.9239 -32.2557 48.6778)" fill="#FFFFFF" width="6.5" height="26.7"/>
		</g>
		
			<rect x="117.4" y="74.1" transform="matrix(-0.3826 0.9239 -0.9239 -0.3826 260.2135 27.3123)" fill="#FFFFFF" width="7.2" height="53.1"/>
	</g>
	<g>
		<g>
			
				<rect x="145.5" y="35" transform="matrix(0.9238 0.3828 -0.3828 0.9238 29.8508 -53.2613)" fill="#FFFFFF" width="6.5" height="26.7"/>
			
				<rect x="153.3" y="53.7" transform="matrix(0.3824 -0.924 0.924 0.3824 34.6981 186.0172)" fill="#FFFFFF" width="6.5" height="26.7"/>
		</g>
		<g>
			
				<rect x="122.8" y="44.4" transform="matrix(0.9239 0.3826 -0.3826 0.9239 31.6987 -43.8485)" fill="#FFFFFF" width="6.5" height="26.7"/>
			
				<rect x="130.6" y="63.1" transform="matrix(0.3827 -0.9239 0.9239 0.3827 11.9845 170.8256)" fill="#FFFFFF" width="6.5" height="26.7"/>
		</g>
		<g>
			
				<rect x="103.5" y="52.4" transform="matrix(0.9239 0.3827 -0.3827 0.9239 33.3076 -35.8511)" fill="#FFFFFF" width="6.5" height="26.7"/>
			
				<rect x="111.2" y="71.1" transform="matrix(0.3828 -0.9238 0.9238 0.3828 -7.3617 157.8885)" fill="#FFFFFF" width="6.5" height="26.7"/>
		</g>
		
			<rect x="117.8" y="44.1" transform="matrix(0.3828 0.9238 -0.9238 0.3828 140.218 -68.6137)" fill="#FFFFFF" width="7.2" height="53.1"/>
	</g>
	<g>
		<g>
			
				<rect x="100.9" y="0.7" transform="matrix(0.924 -0.3825 0.3825 0.924 2.5449 40.9164)" fill="#FFFFFF" width="6.5" height="26.7"/>
			
				<rect x="119.6" y="8.4" transform="matrix(-0.3829 -0.9238 0.9238 -0.3829 149.7652 143.6227)" fill="#FFFFFF" width="6.5" height="26.7"/>
		</g>
		<g>
			
				<rect x="91.5" y="23.4" transform="matrix(0.9239 -0.3826 0.3826 0.9239 -6.8412 39.0641)" fill="#FFFFFF" width="6.5" height="26.7"/>
			
				<rect x="110.2" y="31.1" transform="matrix(-0.3826 -0.9239 0.9239 -0.3826 115.795 166.304)" fill="#FFFFFF" width="6.5" height="26.7"/>
		</g>
		<g>
			
				<rect x="83.5" y="42.7" transform="matrix(0.9239 -0.3827 0.3827 0.9239 -14.8505 37.4738)" fill="#FFFFFF" width="6.5" height="26.7"/>
			
				<rect x="102.2" y="50.4" transform="matrix(-0.3824 -0.924 0.924 -0.3824 86.8273 185.6356)" fill="#FFFFFF" width="6.5" height="26.7"/>
		</g>
		
			<rect x="97" y="22.6" transform="matrix(0.924 0.3825 -0.3825 0.924 26.4318 -34.7477)" fill="#FFFFFF" width="7.2" height="53.1"/>
	</g>
</g>
</svg>
