<?xml version="1.0" encoding="utf-8"?>
<!-- Generator: Adobe Illustrator 18.1.0, SVG Export Plug-In . SVG Version: 6.00 Build 0)  -->
<!DOCTYPE svg PUBLIC "-//W3C//DTD SVG 1.1//EN" "http://www.w3.org/Graphics/SVG/1.1/DTD/svg11.dtd">
<svg version="1.1" id="Layer_1" xmlns="http://www.w3.org/2000/svg" xmlns:xlink="http://www.w3.org/1999/xlink" x="0px" y="0px"
	 viewBox="0 0 170.1 170.1" enable-background="new 0 0 170.1 170.1" xml:space="preserve">
<g>
	<g>
		<g>
			<rect x="81.6" y="0" fill="#FFFFFF" width="7" height="86.8"/>
			<g>
				
					<rect x="88.8" y="4.2" transform="matrix(0.7071 0.7071 -0.7071 0.7071 36.6997 -61.2241)" fill="#FFFFFF" width="7" height="19"/>
				
					<rect x="91.9" y="55.6" transform="matrix(0.7071 0.7071 -0.7071 0.7071 77.0945 -47.0984)" fill="#FFFFFF" width="7" height="27.9"/>
				
					<rect x="97.1" y="14.6" transform="matrix(0.7071 0.7071 -0.7071 0.7071 54.8008 -60.6146)" fill="#FFFFFF" width="7" height="42.5"/>
				
					<rect x="74.3" y="4.2" transform="matrix(-0.7072 0.707 -0.707 -0.7072 142.5334 -31.6476)" fill="#FFFFFF" width="7" height="19"/>
				
					<rect x="71.2" y="55.6" transform="matrix(-0.7071 0.7071 -0.7071 -0.7071 176.6405 65.8438)" fill="#FFFFFF" width="7" height="27.9"/>
				
					<rect x="66" y="14.6" transform="matrix(-0.7072 0.707 -0.707 -0.7072 144.0033 12.0561)" fill="#FFFFFF" width="7" height="42.5"/>
			</g>
		</g>
		<g>
			<rect x="81.6" y="83.2" fill="#FFFFFF" width="7" height="86.8"/>
			<g>
				
					<rect x="74.3" y="146.9" transform="matrix(-0.707 -0.7072 0.7072 -0.707 22.2477 321.9904)" fill="#FFFFFF" width="7" height="19"/>
				
					<rect x="71.2" y="86.6" transform="matrix(-0.707 -0.7072 0.7072 -0.707 56.3631 224.497)" fill="#FFFFFF" width="7" height="27.9"/>
				
					<rect x="66" y="113" transform="matrix(-0.7071 -0.7071 0.7071 -0.7071 23.7369 278.2944)" fill="#FFFFFF" width="7" height="42.5"/>
				
					<rect x="88.8" y="146.9" transform="matrix(0.7071 -0.7071 0.7071 0.7071 -83.5603 111.0415)" fill="#FFFFFF" width="7" height="19"/>
				
					<rect x="91.9" y="86.6" transform="matrix(0.7071 -0.7071 0.7071 0.7071 -43.1756 96.9121)" fill="#FFFFFF" width="7" height="27.9"/>
				
					<rect x="97.1" y="113" transform="matrix(0.7072 -0.707 0.707 0.7072 -65.4559 110.4151)" fill="#FFFFFF" width="7" height="42.5"/>
			</g>
		</g>
		<g>
			<rect x="0" y="81.6" fill="#FFFFFF" width="86.8" height="7"/>
			<g>
				
					<rect x="10.2" y="68.3" transform="matrix(0.7072 -0.707 0.707 0.7072 -51.0119 32.4681)" fill="#FFFFFF" width="7" height="19"/>
				
					<rect x="66" y="60.7" transform="matrix(0.7072 -0.707 0.707 0.7072 -32.4511 71.0116)" fill="#FFFFFF" width="7" height="27.9"/>
				
					<rect x="32.4" y="48.2" transform="matrix(0.7071 -0.7071 0.7071 0.7071 -38.6478 45.706)" fill="#FFFFFF" width="7" height="42.5"/>
				
					<rect x="10.2" y="82.8" transform="matrix(0.7071 0.7071 -0.7071 0.7071 69.2471 17.3402)" fill="#FFFFFF" width="7" height="19"/>
				
					<rect x="66" y="81.5" transform="matrix(0.7071 0.7071 -0.7071 0.7071 87.8124 -21.207)" fill="#FFFFFF" width="7" height="27.9"/>
				
					<rect x="32.4" y="79.3" transform="matrix(0.707 0.7072 -0.7072 0.707 81.626 4.1136)" fill="#FFFFFF" width="7" height="42.5"/>
			</g>
		</g>
		<g>
			<rect x="83.2" y="81.6" fill="#FFFFFF" width="86.8" height="7"/>
			<g>
				
					<rect x="152.9" y="82.8" transform="matrix(-0.7071 0.7071 -0.7071 -0.7071 332.2081 46.9233)" fill="#FFFFFF" width="7" height="19"/>
				
					<rect x="97.1" y="81.5" transform="matrix(-0.7072 0.707 -0.707 -0.7072 239.1454 91.7484)" fill="#FFFFFF" width="7" height="27.9"/>
				
					<rect x="130.7" y="79.3" transform="matrix(-0.7071 0.7071 -0.7071 -0.7071 300.2629 76.7749)" fill="#FFFFFF" width="7" height="42.5"/>
				
					<rect x="152.9" y="68.3" transform="matrix(-0.7071 -0.7071 0.7071 -0.7071 211.933 243.4323)" fill="#FFFFFF" width="7" height="19"/>
				
					<rect x="97.1" y="60.7" transform="matrix(-0.7071 -0.7071 0.7071 -0.7071 118.8808 198.6091)" fill="#FFFFFF" width="7" height="27.9"/>
				
					<rect x="130.7" y="48.2" transform="matrix(-0.707 -0.7072 0.7072 -0.707 179.9843 213.5727)" fill="#FFFFFF" width="7" height="42.5"/>
			</g>
		</g>
		<g>
			
				<rect x="52.1" y="12.2" transform="matrix(0.7071 -0.7071 0.7071 0.7071 -23.0332 55.6079)" fill="#FFFFFF" width="7" height="86.8"/>
			<g>
				<rect x="36.2" y="20" fill="#FFFFFF" width="7" height="19"/>
				<rect x="77.9" y="52.8" fill="#FFFFFF" width="7" height="27.9"/>
				<rect x="57.8" y="18" fill="#FFFFFF" width="7" height="42.5"/>
				<rect x="20" y="36.2" fill="#FFFFFF" width="19" height="7"/>
				<rect x="52.8" y="77.9" fill="#FFFFFF" width="27.9" height="7"/>
				<rect x="18" y="57.8" fill="#FFFFFF" width="42.5" height="7"/>
			</g>
		</g>
		<g>
			
				<rect x="111" y="71.1" transform="matrix(-0.7071 0.7071 -0.7071 -0.7071 276.3588 114.4723)" fill="#FFFFFF" width="7" height="86.8"/>
			<g>
				<rect x="126.9" y="131.1" fill="#FFFFFF" width="7" height="19"/>
				<rect x="85.2" y="89.4" fill="#FFFFFF" width="7" height="27.9"/>
				<rect x="105.4" y="109.5" fill="#FFFFFF" width="7" height="42.5"/>
				<rect x="131.1" y="126.9" fill="#FFFFFF" width="19" height="7"/>
				<rect x="89.4" y="85.2" fill="#FFFFFF" width="27.9" height="7"/>
				<rect x="109.5" y="105.4" fill="#FFFFFF" width="42.5" height="7"/>
			</g>
		</g>
		<g>
			
				<rect x="111" y="12.2" transform="matrix(0.7071 0.7071 -0.7071 0.7071 72.8486 -64.6569)" fill="#FFFFFF" width="7" height="86.8"/>
			<g>
				<rect x="131.1" y="36.2" fill="#FFFFFF" width="19" height="7"/>
				<rect x="89.4" y="77.9" fill="#FFFFFF" width="27.9" height="7"/>
				<rect x="109.5" y="57.8" fill="#FFFFFF" width="42.5" height="7"/>
				<rect x="126.9" y="20" fill="#FFFFFF" width="7" height="19"/>
				<rect x="85.2" y="52.8" fill="#FFFFFF" width="7" height="27.9"/>
				<rect x="105.4" y="18" fill="#FFFFFF" width="7" height="42.5"/>
			</g>
		</g>
		<g>
			
				<rect x="52.1" y="71.1" transform="matrix(-0.7071 -0.7071 0.7071 -0.7071 13.9822 234.7345)" fill="#FFFFFF" width="7" height="86.8"/>
			<g>
				<rect x="20" y="126.9" fill="#FFFFFF" width="19" height="7"/>
				<rect x="52.8" y="85.2" fill="#FFFFFF" width="27.9" height="7"/>
				<rect x="18" y="105.4" fill="#FFFFFF" width="42.5" height="7"/>
				<rect x="36.2" y="131.1" fill="#FFFFFF" width="7" height="19"/>
				<rect x="77.9" y="89.4" fill="#FFFFFF" width="7" height="27.9"/>
				<rect x="57.8" y="109.5" fill="#FFFFFF" width="7" height="42.5"/>
			</g>
		</g>
	</g>
	<g display="none">
		<polygon display="inline" fill="#FFFFFF" points="83.7,55 85.1,32.1 86.6,55 86.6,79.8 85.1,80.6 83.7,79.8 		"/>
		<polygon display="inline" fill="#FFFFFF" points="63,64.8 47.8,47.5 65,62.7 82.5,80.2 82.1,81.8 80.5,82.2 		"/>
		<polygon display="inline" fill="#FFFFFF" points="55.2,86.3 32.3,84.8 55.2,83.3 79.9,83.3 80.8,84.8 79.9,86.3 		"/>
		<polygon display="inline" fill="#FFFFFF" points="64.9,106.9 47.7,122.1 62.9,104.9 80.3,87.4 82,87.8 82.4,89.4 		"/>
		<polygon display="inline" fill="#FFFFFF" points="86.4,114.7 85,137.6 83.5,114.7 83.5,90 85,89.1 86.4,90 		"/>
		<polygon display="inline" fill="#FFFFFF" points="107.1,105 122.3,122.2 105,107.1 87.5,89.6 88,87.9 89.6,87.5 		"/>
		<polygon display="inline" fill="#FFFFFF" points="114.9,83.5 137.8,85 114.9,86.4 90.1,86.4 89.3,85 90.1,83.5 		"/>
		<polygon display="inline" fill="#FFFFFF" points="105.2,62.8 122.4,47.6 107.2,64.9 89.7,82.4 88.1,81.9 87.7,80.3 		"/>
	</g>
</g>
</svg>
