<?xml version="1.0" encoding="utf-8"?>
<!-- Generator: Adobe Illustrator 18.1.0, SVG Export Plug-In . SVG Version: 6.00 Build 0)  -->
<!DOCTYPE svg PUBLIC "-//W3C//DTD SVG 1.1//EN" "http://www.w3.org/Graphics/SVG/1.1/DTD/svg11.dtd">
<svg version="1.1" id="Layer_1" xmlns="http://www.w3.org/2000/svg" xmlns:xlink="http://www.w3.org/1999/xlink" x="0px" y="0px"
	 viewBox="0 0 170.1 170.1" enable-background="new 0 0 170.1 170.1" xml:space="preserve">
<g>
	<ellipse fill="#FFFFFF" cx="35.1" cy="154.8" rx="2" ry="2.2"/>
	<ellipse fill="#FFFFFF" cx="165.6" cy="97.3" rx="2" ry="2.2"/>
	<ellipse fill="#FFFFFF" cx="134.4" cy="16.4" rx="2" ry="2.2"/>
	<ellipse fill="#FFFFFF" cx="53.8" cy="5.3" rx="2" ry="2.2"/>
	<g>
		<path fill="#FFFFFF" d="M48.1,79.9c-10.9-2.7-41-10.2-43-10.5c-2.5-0.3-4.7,1.5-5,4.2c-0.3,2.6,1.4,5.1,3.9,5.4
			c2,0.3,32.9,1.4,44.1,1.8l-1.5-0.6L48.1,79.9z M4.5,76.2c-1.1,0-2-1-2-2.2c0-1.2,0.9-2.2,2-2.2s2,1,2,2.2
			C6.5,75.3,5.6,76.2,4.5,76.2z"/>
		<path fill="#FFFFFF" d="M20.9,85.1c-1.6,0.4-2.6,2-2.2,3.7c0.3,1.7,1.9,2.8,3.5,2.4c1.3-0.3,22-7.4,28.1-9.5l-0.7-0.3
			C42.6,82.3,22.2,84.8,20.9,85.1z M21.5,90.4c-1.1,0-2-1-2-2.2c0-1.2,0.9-2.2,2-2.2c1.1,0,2,1,2,2.2C23.5,89.4,22.6,90.4,21.5,90.4
			z"/>
		<path fill="#FFFFFF" d="M25.7,62.6c-1.4-0.8-3.2-0.2-3.9,1.3c-0.7,1.5-0.2,3.4,1.3,4.2c1.2,0.7,20.3,8.8,26.8,11.5l0.7-0.1
			C45.2,75.9,26.9,63.3,25.7,62.6z M24.2,67.5c-1.1,0-2-1-2-2.2c0-1.2,0.9-2.2,2-2.2c1.1,0,2,1,2,2.2C26.3,66.6,25.4,67.5,24.2,67.5
			z"/>
		<path fill="#FFFFFF" d="M34.6,100.4c-1.3,1.1-1.5,3-0.5,4.4c1,1.4,2.8,1.6,4.1,0.5c1-0.9,15.3-15.4,20.7-20.9L58,84.3
			C51.4,88.8,35.6,99.6,34.6,100.4z M36.3,105c-1.1,0-2-1-2-2.2c0-1.2,0.9-2.2,2-2.2s2,1,2,2.2C38.3,104.1,37.4,105,36.3,105z"/>
		<path fill="#FFFFFF" d="M44.5,53.5c-1-1.4-2.8-1.6-4.1-0.6c-1.3,1-1.5,3-0.6,4.4c0.8,1.1,13.5,15.9,18.7,22l0.8,0.1
			C55.6,72.6,45.3,54.6,44.5,53.5z M42.2,57.5c-1.1,0-2-1-2-2.2c0-1.2,0.9-2.2,2-2.2c1.1,0,2,1,2,2.2C44.2,56.5,43.3,57.5,42.2,57.5
			z"/>
		<path fill="#FFFFFF" d="M80.3,84.9l-1.1-2.7L78.3,82c0.1,0.2,0.1,0.3,0.1,0.3s-0.1-0.1-0.2-0.3l-18.8-2.6c0.9,1.6,1.4,2.5,1.4,2.5
			s-0.9-1-2.3-2.7l-2.4-0.3l-5.7,0.7c0.9,0.6,1.5,1,1.5,1s-0.8-0.3-2.2-0.9l-1.7,0.2c2.5,0.6,4,1,4,1s-1.5-0.1-4.1-0.1l1.6,0.7
			c1.4-0.2,2.3-0.3,2.3-0.3s-0.6,0.2-1.6,0.6l5.3,2.3l2.4,0.3c1.7-1.2,2.8-1.9,2.8-1.9s-0.8,0.8-2,2.1L76.7,87
			c0.8-0.6,1.3-0.9,1.3-0.9s-0.4,0.4-0.9,0.9l1.6,0.2L80.3,84.9z"/>
		<path fill="#FFFFFF" d="M59.5,98.6c-0.9,0.7-1.1,2.1-0.4,3.1c0.7,1,2,1.1,2.9,0.4c0.8-0.6,11.8-11.7,15.1-15L76.7,87
			C72.5,89.7,60.2,98,59.5,98.6z M60.7,101.5c-0.6,0-1.2-0.6-1.2-1.2c0-0.7,0.5-1.2,1.2-1.2c0.6,0,1.2,0.6,1.2,1.2
			C61.9,101,61.4,101.5,60.7,101.5z"/>
		<path fill="#FFFFFF" d="M66.8,62.4c-0.7-1-2-1.1-2.9-0.4c-0.9,0.7-1.1,2.1-0.4,3.1C64.2,66,76.4,80,78.2,82l0.1,0
			C77,79.8,67.5,63.3,66.8,62.4z M65.2,65c-0.6,0-1.2-0.6-1.2-1.3c0-0.7,0.5-1.2,1.2-1.2s1.2,0.6,1.2,1.2C66.4,64.4,65.9,65,65.2,65
			z"/>
	</g>
	<g>
		<path fill="#FFFFFF" d="M62.4,116.8c-7.7,8.8-28.8,33-30,34.7c-1.5,2.1-1.1,5.1,0.8,6.8c2,1.6,4.8,1.2,6.3-0.9
			c1.2-1.7,17.6-29.8,23.5-40.1l-1.3,1.1L62.4,116.8z M37.7,155.4c-0.6,1-1.8,1.4-2.7,0.8c-1-0.6-1.3-1.9-0.7-2.9s1.8-1.4,2.7-0.8
			C37.9,153.1,38.2,154.4,37.7,155.4z"/>
		<path fill="#FFFFFF" d="M53.1,144.6c-0.5,1.6,0.3,3.4,1.9,3.9c1.5,0.5,3.2-0.4,3.7-2c0.4-1.4,5-24.2,6.4-30.8l-0.6,0.5
			C61.6,123,53.5,143.2,53.1,144.6z M57.6,146.7c-0.6,1-1.8,1.4-2.7,0.8c-1-0.6-1.3-1.9-0.7-2.9c0.6-1,1.8-1.4,2.7-0.8
			C57.8,144.4,58.1,145.7,57.6,146.7z"/>
		<path fill="#FFFFFF" d="M37.3,129c-1.4,0.9-1.7,2.9-0.9,4.3c0.9,1.5,2.7,1.9,4,0.9c1.1-0.8,17.2-14.4,22.7-19.1l0.3-0.7
			C57.8,117.5,38.4,128.2,37.3,129z M37.7,133.5c-1-0.6-1.3-1.9-0.7-2.9c0.6-1,1.8-1.4,2.7-0.8c1,0.6,1.3,1.9,0.7,2.9
			C39.9,133.8,38.7,134.1,37.7,133.5z"/>
		<path fill="#FFFFFF" d="M72.2,139.6c0.2,1.7,1.7,2.9,3.3,2.7c1.6-0.2,2.7-1.8,2.5-3.5c-0.2-1.4-4.8-21.9-6.5-29.6l-0.5,0.7
			C71.3,118.1,72.1,138.2,72.2,139.6z M73.4,138.1c0.6-1,1.8-1.4,2.7-0.8c1,0.6,1.3,1.9,0.7,2.9c-0.6,1-1.8,1.4-2.7,0.8
			C73.1,140.5,72.8,139.1,73.4,138.1z"/>
		<path fill="#FFFFFF" d="M39.3,106.9c-1.6,0.2-2.7,1.8-2.5,3.5c0.2,1.7,1.7,2.9,3.2,2.7c1.3-0.2,19.5-4.6,27.2-6.4l0.5-0.7
			C60.3,106.1,40.6,106.7,39.3,106.9z M38.6,111.8c-1-0.6-1.3-1.9-0.7-2.9c0.6-1,1.8-1.4,2.7-0.8c1,0.6,1.3,1.9,0.7,2.9
			C40.8,112,39.6,112.4,38.6,111.8z"/>
		<path fill="#FFFFFF" d="M82.6,93.4l1-1.3l-1.1-2.7L79.8,89l-0.6,0.8c0.2,0,0.3,0,0.3,0s-0.1,0-0.3,0.1l-11.5,16.1
			c1.7,0,2.8-0.1,2.8-0.1s-1.3,0.3-3.3,0.8l-1.5,2.1l-2.3,5.7c1-0.5,1.5-0.8,1.5-0.8s-0.7,0.6-1.8,1.5l-0.7,1.7
			c1.7-2,2.8-3.2,2.8-3.2s-0.8,1.4-2.1,3.7l1.3-1.1c0.6-1.4,0.9-2.3,0.9-2.3s-0.1,0.7-0.4,1.8l4.5-3.8l1.5-2.1
			c-0.1-2.2-0.1-3.6-0.1-3.6s0.2,1.1,0.7,2.9l10.9-15.3c0-1.1-0.1-1.7-0.1-1.7S82.5,92.6,82.6,93.4z"/>
		<path fill="#FFFFFF" d="M87.2,115c-0.1-1-3.5-16.8-4.6-21.5l-0.2,0.3c0.2,5.2,0.6,20.8,0.8,21.8c0.1,1.2,1.2,2,2.3,1.9
			C86.6,117.3,87.4,116.2,87.2,115z M86.2,115.9c-0.3,0.6-1,0.8-1.6,0.5c-0.6-0.3-0.7-1.1-0.4-1.7c0.3-0.6,1-0.8,1.6-0.5
			C86.3,114.5,86.5,115.3,86.2,115.9z"/>
		<path fill="#FFFFFF" d="M57.6,90.6c-1.1,0.2-1.9,1.3-1.8,2.5c0.2,1.2,1.2,2,2.3,1.9c1-0.1,18.5-4.5,21-5.1l0.1-0.1
			C76.8,89.9,58.7,90.5,57.6,90.6z M57.3,93.9c-0.6-0.3-0.7-1.1-0.4-1.7c0.3-0.6,1-0.8,1.6-0.5c0.6,0.3,0.8,1.1,0.4,1.7
			C58.6,94,57.9,94.2,57.3,93.9z"/>
	</g>
	<g>
		<path fill="#FFFFFF" d="M99.4,121.9c3.3,11.5,12.2,43.2,13,45.2c1,2.5,3.6,3.6,5.9,2.6c2.3-1,3.4-3.8,2.4-6.3
			c-0.8-2-15.3-31.2-20.6-41.8l0.2,1.7L99.4,121.9z M115.5,163.4c1-0.6,2.2-0.2,2.7,0.8c0.6,1,0.2,2.3-0.7,2.9
			c-1,0.6-2.2,0.2-2.7-0.8C114.2,165.3,114.5,164,115.5,163.4z"/>
		<path fill="#FFFFFF" d="M117.2,144.5c1.1,1.3,2.9,1.4,4.1,0.2c1.2-1.2,1.3-3.1,0.2-4.4c-0.9-1.1-17-16.7-21.7-21.3l0.1,0.8
			C104,125.8,116.3,143.5,117.2,144.5z M118.4,140.6c1-0.6,2.2-0.2,2.7,0.8c0.6,1,0.2,2.3-0.7,2.9c-1,0.6-2.2,0.2-2.7-0.8
			C117.1,142.5,117.4,141.2,118.4,140.6z"/>
		<path fill="#FFFFFF" d="M96.6,151.4c0.1,1.7,1.4,3,3,3c1.6-0.1,2.8-1.6,2.8-3.3c-0.1-1.4-3.1-23.2-4.1-30.6l-0.4-0.6
			C97.6,126.6,96.6,149.9,96.6,151.4z M101.3,150.3c0.6,1,0.2,2.3-0.7,2.9c-1,0.6-2.2,0.2-2.7-0.8c-0.6-1-0.2-2.3,0.7-2.9
			C99.5,148.9,100.7,149.2,101.3,150.3z"/>
		<path fill="#FFFFFF" d="M124.9,118.4c-1.2-0.5-20.1-6.5-27.2-8.8l0.3,0.8c6.9,3.9,23.5,13.2,24.7,13.7c1.5,0.6,3.2-0.1,3.8-1.7
			C127.1,120.9,126.3,119.1,124.9,118.4z M124.8,123.2c-1,0.6-2.2,0.2-2.7-0.8c-0.6-1-0.2-2.3,0.7-2.9c1-0.6,2.2-0.2,2.7,0.8
			C126.1,121.3,125.8,122.6,124.8,123.2z"/>
		<path fill="#FFFFFF" d="M79.8,138.4c-0.6,1.6,0.1,3.4,1.5,4.1c1.5,0.7,3.2-0.1,3.8-1.7c0.5-1.3,6.1-20.4,8.4-28.4l-0.3-0.8
			C89.7,118.6,80.3,137.1,79.8,138.4z M83.4,141.5c-1,0.6-2.2,0.2-2.7-0.8c-0.6-1-0.2-2.3,0.7-2.9c1-0.6,2.2-0.2,2.7,0.8
			C84.7,139.6,84.4,140.9,83.4,141.5z"/>
		<path fill="#FFFFFF" d="M97.7,109.7l-6.9-17.8c-0.9-0.5-1.4-0.8-1.4-0.8s0.5,0.1,1.2,0.4L90,89.9l-2.7-0.4l-1.7,2.3l0.4,0.9
			c0.1-0.2,0.1-0.3,0.1-0.3s0,0.1-0.1,0.3l7.2,18.7c0.8-1.6,1.3-2.6,1.3-2.6s-0.4,1.3-1,3.5l0.9,2.4l3.4,4.9C98,118.7,98,118,98,118
			s0.1,0.9,0.3,2.5l1,1.5c-0.7-2.6-1.2-4.2-1.2-4.2s0.7,1.5,1.9,3.8l-0.2-1.8c-0.9-1.2-1.4-2-1.4-2s0.5,0.5,1.3,1.2l-0.8-6.1
			l-0.9-2.4c-1.8-1-3-1.7-3-1.7S96,109.1,97.7,109.7z"/>
		<path fill="#FFFFFF" d="M108.8,102c1,0.5,2.2-0.1,2.7-1.2c0.4-1.1-0.1-2.4-1.1-2.9c-0.9-0.4-15.3-5.1-19.7-6.5l0.2,0.4
			C95.1,94.3,107.9,101.6,108.8,102z M108.9,98.9c0.6-0.3,1.3-0.1,1.6,0.5c0.3,0.6,0.1,1.4-0.4,1.7c-0.6,0.3-1.3,0.1-1.6-0.5
			C108.2,100,108.4,99.3,108.9,98.9z"/>
		<path fill="#FFFFFF" d="M75.9,113.3c-0.4,1.1,0.1,2.4,1.1,2.9c1,0.5,2.2-0.1,2.7-1.2c0.4-1,5.6-19.4,6.4-22.1l0-0.1
			C84.8,95.1,76.3,112.2,75.9,113.3z M78.3,115.2c-0.6,0.3-1.3,0.1-1.6-0.5c-0.3-0.6-0.1-1.4,0.4-1.7c0.6-0.3,1.3-0.1,1.6,0.5
			C79.1,114.1,78.9,114.8,78.3,115.2z"/>
	</g>
	<g>
		<path fill="#FFFFFF" d="M166.2,91.1c-2-0.3-32.9-1.4-44.1-1.8l1.5,0.6l-1.6,0.2c10.9,2.7,41,10.2,43,10.5c2.5,0.3,4.7-1.5,5-4.2
			C170.4,93.9,168.6,91.5,166.2,91.1z M165.6,98.1c-1.1,0-2-1-2-2.2c0-1.2,0.9-2.2,2-2.2c1.1,0,2,1,2,2.2
			C167.6,97.2,166.7,98.1,165.6,98.1z"/>
		<path fill="#FFFFFF" d="M149.1,84.9c1.6-0.4,2.6-2,2.2-3.7c-0.3-1.7-1.9-2.8-3.5-2.4c-1.3,0.3-22,7.4-28.1,9.5l0.7,0.3
			C127.4,87.8,147.8,85.2,149.1,84.9z M148.6,79.7c1.1,0,2,1,2,2.2c0,1.2-0.9,2.2-2,2.2c-1.1,0-2-1-2-2.2
			C146.6,80.7,147.5,79.7,148.6,79.7z"/>
		<path fill="#FFFFFF" d="M144.4,107.4c1.4,0.8,3.2,0.2,3.9-1.3c0.7-1.5,0.2-3.4-1.3-4.2c-1.2-0.7-20.3-8.8-26.8-11.5l-0.7,0.1
			C124.9,94.1,143.2,106.8,144.4,107.4z M145.8,102.6c1.1,0,2,1,2,2.2c0,1.2-0.9,2.2-2,2.2c-1.1,0-2-1-2-2.2
			C143.8,103.5,144.7,102.6,145.8,102.6z"/>
		<path fill="#FFFFFF" d="M135.5,69.7c1.3-1.1,1.5-3,0.5-4.4c-1-1.4-2.8-1.6-4.1-0.5c-1,0.9-15.3,15.4-20.7,20.9l0.8,0.1
			C118.7,81.3,134.5,70.5,135.5,69.7z M133.7,65.1c1.1,0,2,1,2,2.2c0,1.2-0.9,2.2-2,2.2c-1.1,0-2-1-2-2.2
			C131.7,66,132.6,65.1,133.7,65.1z"/>
		<path fill="#FFFFFF" d="M125.5,116.6c1,1.4,2.8,1.6,4.1,0.6c1.3-1,1.5-3,0.6-4.4c-0.8-1.1-13.5-15.9-18.7-22l-0.8-0.1
			C114.5,97.5,124.7,115.5,125.5,116.6z M127.9,112.6c1.1,0,2,1,2,2.2c0,1.2-0.9,2.2-2,2.2c-1.1,0-2-1-2-2.2
			C125.9,113.6,126.8,112.6,127.9,112.6z"/>
		<path fill="#FFFFFF" d="M122.1,89.3l-1.6-0.7c-1.4,0.2-2.3,0.3-2.3,0.3s0.6-0.2,1.6-0.6l-5.3-2.3l-2.4-0.3
			c-1.7,1.2-2.8,1.9-2.8,1.9s0.8-0.8,2-2.1l-17.8-2.5c-0.8,0.6-1.3,0.9-1.3,0.9s0.4-0.4,0.9-0.9l-1.6-0.2l-1.7,2.3l1.1,2.7l0.9,0.1
			c-0.1-0.2-0.1-0.2-0.1-0.2s0.1,0.1,0.2,0.3l18.8,2.6c-0.9-1.6-1.4-2.5-1.4-2.5s0.9,1,2.3,2.7l2.4,0.3l5.7-0.7
			c-0.9-0.6-1.5-1-1.5-1s0.8,0.3,2.2,0.9l1.7-0.2c-2.5-0.6-4-1-4-1S119.6,89.2,122.1,89.3z"/>
		<path fill="#FFFFFF" d="M110.6,71.5c0.9-0.7,1.1-2.1,0.4-3.1c-0.7-1-2-1.1-2.9-0.4c-0.8,0.6-11.8,11.7-15.1,15l0.4,0.1
			C97.5,80.4,109.9,72.1,110.6,71.5z M109.4,68.5c0.6,0,1.2,0.6,1.2,1.3c0,0.7-0.5,1.2-1.2,1.2c-0.6,0-1.2-0.6-1.2-1.2
			C108.2,69.1,108.7,68.5,109.4,68.5z"/>
		<path fill="#FFFFFF" d="M103.3,107.7c0.7,1,2,1.1,2.9,0.4c0.9-0.7,1.1-2.1,0.4-3.1c-0.6-0.9-12.9-14.9-14.7-16.9l-0.1,0
			C93,90.3,102.6,106.8,103.3,107.7z M104.8,105.1c0.6,0,1.2,0.6,1.2,1.2c0,0.7-0.5,1.2-1.2,1.2c-0.6,0-1.2-0.6-1.2-1.2
			C103.7,105.7,104.2,105.1,104.8,105.1z"/>
	</g>
	<g>
		<path fill="#FFFFFF" d="M107.6,53.3c7.7-8.8,28.8-33,30-34.7c1.5-2.1,1.1-5.1-0.8-6.8c-2-1.6-4.8-1.2-6.3,0.9
			c-1.2,1.7-17.6,29.8-23.5,40.1l1.3-1.1L107.6,53.3z M132.4,14.7c0.6-1,1.8-1.4,2.7-0.8c1,0.6,1.3,1.9,0.7,2.9
			c-0.6,1-1.8,1.4-2.7,0.8C132.2,17,131.8,15.7,132.4,14.7z"/>
		<path fill="#FFFFFF" d="M117,25.5c0.5-1.6-0.3-3.4-1.9-3.9c-1.5-0.5-3.2,0.4-3.7,2c-0.4,1.4-5,24.2-6.4,30.8l0.6-0.5
			C108.5,47,116.6,26.8,117,25.5z M112.5,23.4c0.6-1,1.8-1.4,2.7-0.8c1,0.6,1.3,1.9,0.7,2.9c-0.6,1-1.8,1.4-2.7,0.8
			C112.3,25.7,111.9,24.4,112.5,23.4z"/>
		<path fill="#FFFFFF" d="M132.8,41.1c1.4-0.9,1.7-2.9,0.9-4.3c-0.9-1.5-2.7-1.9-4-0.9c-1.1,0.8-17.2,14.4-22.7,19.1l-0.3,0.7
			C112.3,52.6,131.7,41.9,132.8,41.1z M132.3,36.6c1,0.6,1.3,1.9,0.7,2.9c-0.6,1-1.8,1.4-2.7,0.8c-1-0.6-1.3-1.9-0.7-2.9
			C130.1,36.3,131.4,36,132.3,36.6z"/>
		<path fill="#FFFFFF" d="M97.8,30.5c-0.2-1.7-1.7-2.9-3.3-2.7c-1.6,0.2-2.7,1.8-2.5,3.5c0.2,1.4,4.8,21.9,6.5,29.6l0.5-0.7
			C98.8,51.9,98,31.9,97.8,30.5z M96.7,32c-0.6,1-1.8,1.4-2.7,0.8c-1-0.6-1.3-1.9-0.7-2.9c0.6-1,1.8-1.4,2.7-0.8
			C97,29.6,97.3,30.9,96.7,32z"/>
		<path fill="#FFFFFF" d="M130.8,63.2c1.6-0.2,2.7-1.8,2.5-3.5c-0.2-1.7-1.6-2.9-3.2-2.7c-1.3,0.2-19.6,4.6-27.2,6.4l-0.5,0.7
			C109.8,63.9,129.5,63.4,130.8,63.2z M131.5,58.3c1,0.6,1.3,1.9,0.7,2.9c-0.6,1-1.8,1.4-2.7,0.8c-1-0.6-1.3-1.9-0.7-2.9
			C129.3,58,130.5,57.7,131.5,58.3z"/>
		<path fill="#FFFFFF" d="M104.9,56.5c0,0,0.8-1.4,2.1-3.7l-1.3,1.1c-0.6,1.4-0.9,2.3-0.9,2.3s0.1-0.7,0.4-1.8l-4.5,3.8l-1.5,2.1
			c0.1,2.2,0.1,3.6,0.1,3.6S99,62.8,98.6,61L87.7,76.3c0,1.1,0.1,1.7,0.1,1.7s-0.1-0.5-0.3-1.4l-1,1.3l1.1,2.7l2.7,0.4l0.6-0.8
			c-0.2,0-0.3,0-0.3,0s0.1,0,0.3-0.1l11.5-16.1c-1.7,0-2.8,0.1-2.8,0.1s1.3-0.3,3.3-0.8l1.5-2.1l2.3-5.6c-1,0.5-1.5,0.8-1.5,0.8
			s0.7-0.6,1.8-1.6l0.7-1.7C105.9,55.3,104.9,56.5,104.9,56.5z"/>
		<path fill="#FFFFFF" d="M86.9,54.5c-0.1-1.2-1.2-2-2.3-1.9c-1.1,0.2-1.9,1.3-1.8,2.5c0.1,1,3.5,16.8,4.6,21.5l0.2-0.3
			C87.5,71.1,87,55.5,86.9,54.5z M85.9,55.5c-0.3,0.6-1,0.8-1.6,0.5c-0.6-0.3-0.7-1.1-0.4-1.7c0.3-0.6,1-0.8,1.6-0.5
			C86,54.1,86.2,54.9,85.9,55.5z"/>
		<path fill="#FFFFFF" d="M112.4,79.4c1.1-0.2,1.9-1.3,1.8-2.5c-0.2-1.2-1.2-2-2.3-1.9c-1,0.1-18.5,4.5-21,5.1l-0.1,0.1
			C93.3,80.2,111.4,79.6,112.4,79.4z M112.7,76.2c0.6,0.3,0.7,1.1,0.4,1.7c-0.3,0.6-1,0.8-1.6,0.5c-0.6-0.3-0.7-1.1-0.4-1.7
			C111.5,76.1,112.2,75.9,112.7,76.2z"/>
	</g>
	<g>
		<path fill="#FFFFFF" d="M70.7,48.2C67.4,36.7,58.5,5,57.7,3c-0.9-2.5-3.6-3.6-5.9-2.6c-2.3,1-3.4,3.8-2.4,6.3
			c0.8,2,15.3,31.2,20.6,41.8l-0.2-1.7L70.7,48.2z M54.6,6.7c-1,0.6-2.2,0.2-2.7-0.8c-0.6-1-0.2-2.3,0.7-2.9c1-0.6,2.2-0.2,2.7,0.8
			C55.9,4.7,55.6,6.1,54.6,6.7z"/>
		<path fill="#FFFFFF" d="M52.9,25.6c-1.1-1.3-2.9-1.4-4.1-0.2c-1.2,1.2-1.3,3.1-0.2,4.4c0.9,1.1,17,16.7,21.7,21.3l-0.1-0.8
			C66,44.3,53.8,26.6,52.9,25.6z M51.7,29.5c-1,0.6-2.2,0.2-2.7-0.8c-0.6-1-0.2-2.3,0.7-2.9c1-0.6,2.2-0.2,2.7,0.8
			C53,27.6,52.6,28.9,51.7,29.5z"/>
		<path fill="#FFFFFF" d="M73.5,18.7c-0.1-1.7-1.4-3-3-3c-1.6,0.1-2.8,1.6-2.8,3.3c0.1,1.4,3.1,23.2,4.1,30.6l0.4,0.6
			C72.5,43.5,73.5,20.2,73.5,18.7z M68.8,19.8c-0.6-1-0.2-2.3,0.7-2.9c1-0.6,2.2-0.2,2.7,0.8c0.6,1,0.2,2.3-0.7,2.9
			C70.6,21.2,69.4,20.9,68.8,19.8z"/>
		<path fill="#FFFFFF" d="M47.4,45.9c-1.5-0.6-3.2,0.1-3.8,1.7c-0.6,1.6,0.1,3.4,1.6,4.1c1.2,0.5,20.1,6.5,27.2,8.8l-0.3-0.8
			C65.2,55.7,48.6,46.4,47.4,45.9z M47.3,50.6c-1,0.6-2.2,0.2-2.7-0.8c-0.6-1-0.2-2.3,0.7-2.9c1-0.6,2.2-0.2,2.7,0.8
			C48.6,48.7,48.2,50,47.3,50.6z"/>
		<path fill="#FFFFFF" d="M90.3,31.7c0.6-1.6-0.1-3.4-1.5-4.1c-1.5-0.7-3.2,0.1-3.8,1.7c-0.5,1.3-6.1,20.4-8.4,28.4l0.3,0.8
			C80.4,51.5,89.8,32.9,90.3,31.7z M86.6,28.6c1-0.6,2.2-0.2,2.7,0.8c0.6,1,0.2,2.3-0.7,2.9c-1,0.6-2.2,0.2-2.7-0.8
			C85.3,30.5,85.7,29.1,86.6,28.6z"/>
		<path fill="#FFFFFF" d="M84.1,77.2l-7.2-18.7c-0.8,1.6-1.3,2.6-1.3,2.6s0.4-1.3,1-3.5l-0.9-2.4l-3.4-4.9c-0.1,1.2-0.1,1.9-0.1,1.9
			s-0.1-0.9-0.3-2.5l-1-1.5c0.7,2.6,1.2,4.2,1.2,4.2s-0.7-1.5-1.9-3.8l0.2,1.8c0.9,1.2,1.4,2,1.4,2s-0.5-0.5-1.3-1.2l0.8,6.1
			l0.9,2.4c1.8,1,3,1.7,3,1.7s-1-0.3-2.7-0.8l6.9,17.8c0.9,0.5,1.4,0.8,1.4,0.8s-0.5-0.1-1.2-0.4l0.6,1.6l2.7,0.4l1.7-2.3L84.1,77.2
			c0,0.2-0.1,0.3-0.1,0.3S84,77.4,84.1,77.2z"/>
		<path fill="#FFFFFF" d="M61.3,68c-1-0.5-2.2,0.1-2.7,1.2c-0.4,1.1,0.1,2.4,1.1,2.9c0.9,0.4,15.3,5.1,19.7,6.5l-0.2-0.4
			C75,75.8,62.2,68.4,61.3,68z M61.1,71.2c-0.6,0.3-1.3,0.1-1.6-0.5c-0.3-0.6-0.1-1.4,0.4-1.7c0.6-0.3,1.3-0.1,1.6,0.5
			C61.9,70.1,61.7,70.8,61.1,71.2z"/>
		<path fill="#FFFFFF" d="M93.1,53.9c-1-0.5-2.2,0.1-2.7,1.2c-0.4,1-5.6,19.4-6.4,22.1l0,0.1c1.1-2.3,9.7-19.5,10.1-20.5
			C94.6,55.7,94.1,54.4,93.1,53.9z M92.9,57.1c-0.6,0.3-1.3,0.1-1.6-0.5c-0.3-0.6-0.1-1.4,0.4-1.7c0.6-0.3,1.3-0.1,1.6,0.5
			C93.7,56,93.5,56.7,92.9,57.1z"/>
	</g>
	<ellipse fill="#FFFFFF" cx="46.6" cy="49.3" rx="2" ry="2.2"/>
</g>
</svg>
